# MagicaVoxel @ Ephtracy

# group
o 

# material
mtllib ground.mtl
usemtl palette

# normals
vn -1 0 0
vn 1 0 0
vn 0 0 1
vn 0 0 -1
vn 0 -1 0
vn 0 1 0

# texcoords
vt 0.201172 0.5
vt 0.458984 0.5
vt 0.482422 0.5
vt 0.533203 0.5
vt 0.537109 0.5
vt 0.583984 0.5
vt 0.880859 0.5
vt 0.884766 0.5
vt 0.888672 0.5

# verts
v -0.5 0 0.5
v -0.5 0 0.4
v -0.5 0 0.2
v -0.5 0 0
v -0.5 0 -0.5
v -0.5 0.1 0.5
v -0.5 0.1 0.4
v -0.5 0.1 0.3
v -0.5 0.1 0.2
v -0.5 0.1 0
v -0.5 0.1 -0.3
v -0.5 0.2 0
v -0.5 0.2 -0.3
v -0.5 0.2 -0.4
v -0.5 0.3 0.4
v -0.5 0.3 0.3
v -0.5 0.3 0.1
v -0.5 0.4 0.5
v -0.5 0.4 0.4
v -0.5 0.4 0.3
v -0.5 0.4 0.2
v -0.5 0.4 0.1
v -0.5 0.4 0
v -0.5 0.4 -0.3
v -0.5 0.4 -0.4
v -0.5 0.5 0.4
v -0.5 0.5 0.3
v -0.5 0.5 0.2
v -0.5 0.5 0
v -0.5 0.5 -0.1
v -0.5 0.5 -0.2
v -0.5 0.5 -0.3
v -0.5 0.5 -0.4
v -0.5 0.6 0
v -0.5 0.6 -0.1
v -0.5 0.6 -0.2
v -0.5 0.7 0.5
v -0.5 0.7 0.4
v -0.5 0.7 0.2
v -0.5 0.7 0.1
v -0.5 0.7 0
v -0.5 0.7 -0.1
v -0.5 0.7 -0.3
v -0.5 0.7 -0.4
v -0.5 0.7 -0.5
v -0.5 0.8 0.5
v -0.5 0.8 0.4
v -0.5 0.8 0.3
v -0.5 0.8 0.2
v -0.5 0.8 0.1
v -0.5 0.8 0
v -0.5 0.8 -0.1
v -0.5 0.8 -0.4
v -0.5 0.8 -0.5
v -0.5 0.9 0.4
v -0.5 0.9 0.3
v -0.5 0.9 0.2
v -0.5 0.9 0.1
v -0.5 0.9 0
v -0.5 0.9 -0.1
v -0.5 0.9 -0.2
v -0.5 0.9 -0.4
v -0.5 0.9 -0.5
v -0.5 1 0.5
v -0.5 1 0.3
v -0.5 1 0.2
v -0.5 1 0.1
v -0.5 1 -0.2
v -0.5 1 -0.4
v -0.5 1 -0.5
v 0.5 0 0.5
v 0.5 0 0.4
v 0.5 0 0.2
v 0.5 0 -0.3
v 0.5 0 -0.4
v 0.5 0 -0.5
v 0.5 0.1 0.5
v 0.5 0.1 0.4
v 0.5 0.1 0.3
v 0.5 0.1 0.2
v 0.5 0.1 0
v 0.5 0.1 -0.2
v 0.5 0.1 -0.3
v 0.5 0.1 -0.4
v 0.5 0.2 0.3
v 0.5 0.2 0
v 0.5 0.2 -0.2
v 0.5 0.2 -0.3
v 0.5 0.2 -0.4
v 0.5 0.2 -0.5
v 0.5 0.3 0.4
v 0.5 0.3 0.2
v 0.5 0.3 -0.2
v 0.5 0.3 -0.4
v 0.5 0.4 0.5
v 0.5 0.4 0.4
v 0.5 0.4 0.3
v 0.5 0.4 0.2
v 0.5 0.4 0
v 0.5 0.4 -0.2
v 0.5 0.4 -0.4
v 0.5 0.5 0.5
v 0.5 0.5 0.4
v 0.5 0.5 0.3
v 0.5 0.5 0.2
v 0.5 0.5 0
v 0.5 0.5 -0.1
v 0.5 0.5 -0.3
v 0.5 0.5 -0.4
v 0.5 0.6 0.2
v 0.5 0.6 0
v 0.5 0.6 -0.2
v 0.5 0.6 -0.3
v 0.5 0.6 -0.4
v 0.5 0.6 -0.5
v 0.5 0.7 0.5
v 0.5 0.7 0.4
v 0.5 0.7 0.3
v 0.5 0.7 0.2
v 0.5 0.7 -0.1
v 0.5 0.7 -0.2
v 0.5 0.7 -0.3
v 0.5 0.7 -0.4
v 0.5 0.7 -0.5
v 0.5 0.8 0.5
v 0.5 0.8 0.4
v 0.5 0.8 0.3
v 0.5 0.8 0.2
v 0.5 0.8 0
v 0.5 0.8 -0.2
v 0.5 0.8 -0.3
v 0.5 0.8 -0.4
v 0.5 0.8 -0.5
v 0.5 0.9 0.5
v 0.5 0.9 0.4
v 0.5 0.9 0.3
v 0.5 0.9 0.2
v 0.5 0.9 0.1
v 0.5 0.9 0
v 0.5 0.9 -0.1
v 0.5 0.9 -0.2
v 0.5 0.9 -0.3
v 0.5 0.9 -0.4
v 0.5 0.9 -0.5
v 0.5 1 0.5
v 0.5 1 0.4
v 0.5 1 0.2
v 0.5 1 0.1
v 0.5 1 0
v 0.5 1 -0.1
v 0.5 1 -0.3
v 0.5 1 -0.5
v -0.5 0 0.5
v -0.5 0.1 0.5
v -0.5 0.4 0.5
v -0.5 0.7 0.5
v -0.5 0.8 0.5
v -0.5 1 0.5
v -0.4 0.1 0.5
v -0.4 0.2 0.5
v -0.4 0.4 0.5
v -0.4 0.5 0.5
v -0.4 0.6 0.5
v -0.4 0.7 0.5
v -0.4 0.8 0.5
v -0.4 0.9 0.5
v -0.4 1 0.5
v -0.3 0 0.5
v -0.3 0.1 0.5
v -0.3 0.2 0.5
v -0.3 0.4 0.5
v -0.3 0.5 0.5
v -0.3 0.6 0.5
v -0.3 0.7 0.5
v -0.3 0.8 0.5
v -0.3 0.9 0.5
v -0.2 0 0.5
v -0.2 0.1 0.5
v -0.2 0.3 0.5
v -0.2 0.4 0.5
v -0.2 0.7 0.5
v -0.2 0.8 0.5
v -0.1 0 0.5
v -0.1 0.1 0.5
v -0.1 0.2 0.5
v -0.1 0.3 0.5
v -0.1 0.4 0.5
v -0.1 0.5 0.5
v -0.1 0.6 0.5
v -0.1 0.7 0.5
v 0 0.3 0.5
v 0 0.4 0.5
v 0 0.7 0.5
v 0 0.8 0.5
v 0.1 0.2 0.5
v 0.1 0.3 0.5
v 0.1 0.5 0.5
v 0.1 0.7 0.5
v 0.1 0.8 0.5
v 0.1 0.9 0.5
v 0.2 0.2 0.5
v 0.2 0.3 0.5
v 0.2 0.4 0.5
v 0.2 0.5 0.5
v 0.2 0.7 0.5
v 0.2 0.8 0.5
v 0.3 0.1 0.5
v 0.3 0.2 0.5
v 0.3 0.3 0.5
v 0.3 0.4 0.5
v 0.3 0.6 0.5
v 0.3 0.7 0.5
v 0.3 0.9 0.5
v 0.4 0 0.5
v 0.4 0.1 0.5
v 0.4 0.2 0.5
v 0.4 0.3 0.5
v 0.4 0.4 0.5
v 0.4 0.5 0.5
v 0.4 0.6 0.5
v 0.4 0.7 0.5
v 0.4 0.8 0.5
v 0.5 0 0.5
v 0.5 0.1 0.5
v 0.5 0.4 0.5
v 0.5 0.5 0.5
v 0.5 0.7 0.5
v 0.5 0.8 0.5
v 0.5 0.9 0.5
v 0.5 1 0.5
v -0.5 0 -0.5
v -0.5 0.7 -0.5
v -0.5 0.8 -0.5
v -0.5 0.9 -0.5
v -0.5 1 -0.5
v -0.4 0 -0.5
v -0.4 0.3 -0.5
v -0.4 0.7 -0.5
v -0.4 0.8 -0.5
v -0.4 0.9 -0.5
v -0.4 1 -0.5
v -0.3 0.1 -0.5
v -0.3 0.2 -0.5
v -0.3 0.3 -0.5
v -0.3 0.5 -0.5
v -0.3 0.6 -0.5
v -0.3 0.7 -0.5
v -0.3 0.8 -0.5
v -0.3 0.9 -0.5
v -0.2 0 -0.5
v -0.2 0.1 -0.5
v -0.2 0.2 -0.5
v -0.2 0.5 -0.5
v -0.2 0.6 -0.5
v -0.2 0.7 -0.5
v -0.2 0.8 -0.5
v -0.1 0.3 -0.5
v -0.1 0.4 -0.5
v -0.1 0.5 -0.5
v -0.1 0.6 -0.5
v -0.1 0.7 -0.5
v -0.1 0.9 -0.5
v 0 0 -0.5
v 0 0.1 -0.5
v 0 0.4 -0.5
v 0 0.5 -0.5
v 0 0.6 -0.5
v 0 0.7 -0.5
v 0 0.8 -0.5
v 0.1 0.1 -0.5
v 0.1 0.2 -0.5
v 0.1 0.3 -0.5
v 0.1 0.4 -0.5
v 0.1 0.8 -0.5
v 0.1 0.9 -0.5
v 0.2 0.5 -0.5
v 0.2 0.6 -0.5
v 0.2 0.7 -0.5
v 0.2 0.8 -0.5
v 0.3 0.1 -0.5
v 0.3 0.2 -0.5
v 0.3 0.3 -0.5
v 0.3 0.8 -0.5
v 0.3 0.9 -0.5
v 0.4 0 -0.5
v 0.4 0.2 -0.5
v 0.4 0.3 -0.5
v 0.4 0.5 -0.5
v 0.4 0.6 -0.5
v 0.4 0.7 -0.5
v 0.4 0.8 -0.5
v 0.4 0.9 -0.5
v 0.4 1 -0.5
v 0.5 0 -0.5
v 0.5 0.2 -0.5
v 0.5 0.6 -0.5
v 0.5 0.7 -0.5
v 0.5 0.8 -0.5
v 0.5 0.9 -0.5
v 0.5 1 -0.5
v -0.5 0 0.5
v -0.3 0 0.5
v -0.2 0 0.5
v -0.1 0 0.5
v 0.4 0 0.5
v 0.5 0 0.5
v -0.5 0 0.4
v -0.4 0 0.4
v -0.3 0 0.4
v -0.2 0 0.4
v -0.1 0 0.4
v 0.4 0 0.4
v 0.5 0 0.4
v -0.5 0 0.2
v -0.4 0 0.2
v 0.4 0 0.2
v 0.5 0 0.2
v -0.5 0 0
v -0.4 0 0
v 0.4 0 -0.3
v 0.5 0 -0.3
v -0.4 0 -0.4
v -0.2 0 -0.4
v 0 0 -0.4
v 0.4 0 -0.4
v 0.5 0 -0.4
v -0.5 0 -0.5
v -0.4 0 -0.5
v -0.2 0 -0.5
v 0 0 -0.5
v 0.4 0 -0.5
v 0.5 0 -0.5
v -0.5 1 0.5
v -0.4 1 0.5
v 0.5 1 0.5
v -0.4 1 0.4
v -0.3 1 0.4
v 0.3 1 0.4
v 0.5 1 0.4
v -0.5 1 0.3
v -0.4 1 0.3
v -0.3 1 0.3
v 0.3 1 0.3
v -0.5 1 0.2
v -0.4 1 0.2
v -0.3 1 0.2
v 0.5 1 0.2
v -0.5 1 0.1
v -0.3 1 0.1
v -0.2 1 0.1
v 0.5 1 0.1
v 0.2 1 0
v 0.5 1 0
v -0.2 1 -0.1
v 0 1 -0.1
v 0.2 1 -0.1
v 0.5 1 -0.1
v -0.5 1 -0.2
v -0.3 1 -0.2
v 0 1 -0.2
v 0.3 1 -0.2
v 0.4 1 -0.3
v 0.5 1 -0.3
v -0.5 1 -0.4
v -0.4 1 -0.4
v -0.3 1 -0.4
v 0.3 1 -0.4
v -0.5 1 -0.5
v -0.4 1 -0.5
v 0.4 1 -0.5
v 0.5 1 -0.5

# faces
f 6/2/1 2/2/1 1/2/1
f 7/4/1 3/4/1 2/4/1
f 7/2/1 2/2/1 6/2/1
f 8/4/1 3/4/1 7/4/1
f 9/2/1 4/2/1 3/2/1
f 9/4/1 3/4/1 8/4/1
f 10/4/1 5/4/1 4/4/1
f 10/2/1 4/2/1 9/2/1
f 11/4/1 5/4/1 10/4/1
f 12/5/1 9/5/1 8/5/1
f 12/5/1 10/5/1 9/5/1
f 12/2/1 11/2/1 10/2/1
f 13/4/1 5/4/1 11/4/1
f 13/2/1 11/2/1 12/2/1
f 14/4/1 5/4/1 13/4/1
f 15/4/1 8/4/1 7/4/1
f 15/3/1 7/3/1 6/3/1
f 16/5/1 12/5/1 8/5/1
f 16/4/1 8/4/1 15/4/1
f 16/5/1 14/5/1 13/5/1
f 16/5/1 13/5/1 12/5/1
f 17/5/1 14/5/1 16/5/1
f 18/3/1 15/3/1 6/3/1
f 19/5/1 16/5/1 15/5/1
f 19/3/1 15/3/1 18/3/1
f 20/2/1 17/2/1 16/2/1
f 20/5/1 16/5/1 19/5/1
f 21/2/1 17/2/1 20/2/1
f 22/5/1 14/5/1 17/5/1
f 22/2/1 17/2/1 21/2/1
f 23/5/1 14/5/1 22/5/1
f 24/5/1 14/5/1 23/5/1
f 25/4/1 5/4/1 14/4/1
f 25/5/1 14/5/1 24/5/1
f 26/1/1 21/1/1 20/1/1
f 26/4/1 19/4/1 18/4/1
f 26/1/1 20/1/1 19/1/1
f 27/1/1 21/1/1 26/1/1
f 28/2/1 23/2/1 22/2/1
f 28/1/1 21/1/1 27/1/1
f 28/2/1 22/2/1 21/2/1
f 29/5/1 24/5/1 23/5/1
f 29/2/1 23/2/1 28/2/1
f 30/5/1 24/5/1 29/5/1
f 31/5/1 24/5/1 30/5/1
f 32/1/1 25/1/1 24/1/1
f 32/5/1 24/5/1 31/5/1
f 33/4/1 5/4/1 25/4/1
f 33/1/1 25/1/1 32/1/1
f 34/5/1 28/5/1 27/5/1
f 34/5/1 29/5/1 28/5/1
f 34/5/1 30/5/1 29/5/1
f 35/6/1 31/6/1 30/6/1
f 35/5/1 30/5/1 34/5/1
f 36/5/1 32/5/1 31/5/1
f 36/6/1 31/6/1 35/6/1
f 37/4/1 26/4/1 18/4/1
f 38/7/1 27/7/1 26/7/1
f 38/4/1 26/4/1 37/4/1
f 39/5/1 34/5/1 27/5/1
f 40/5/1 34/5/1 39/5/1
f 41/2/1 35/2/1 34/2/1
f 41/5/1 34/5/1 40/5/1
f 42/5/1 36/5/1 35/5/1
f 42/2/1 35/2/1 41/2/1
f 43/5/1 32/5/1 36/5/1
f 43/5/1 36/5/1 42/5/1
f 43/4/1 33/4/1 32/4/1
f 44/4/1 5/4/1 33/4/1
f 44/4/1 33/4/1 43/4/1
f 45/4/1 5/4/1 44/4/1
f 46/2/1 38/2/1 37/2/1
f 47/7/1 27/7/1 38/7/1
f 47/2/1 38/2/1 46/2/1
f 48/5/1 39/5/1 27/5/1
f 48/7/1 27/7/1 47/7/1
f 49/7/1 40/7/1 39/7/1
f 49/5/1 39/5/1 48/5/1
f 50/5/1 42/5/1 41/5/1
f 50/7/1 40/7/1 49/7/1
f 50/5/1 41/5/1 40/5/1
f 51/5/1 42/5/1 50/5/1
f 52/2/1 43/2/1 42/2/1
f 52/5/1 42/5/1 51/5/1
f 52/2/1 44/2/1 43/2/1
f 53/7/1 45/7/1 44/7/1
f 53/2/1 44/2/1 52/2/1
f 54/7/1 45/7/1 53/7/1
f 55/7/1 48/7/1 47/7/1
f 55/8/1 47/8/1 46/8/1
f 56/8/1 49/8/1 48/8/1
f 56/7/1 48/7/1 55/7/1
f 57/7/1 51/7/1 50/7/1
f 57/8/1 49/8/1 56/8/1
f 57/7/1 50/7/1 49/7/1
f 58/7/1 51/7/1 57/7/1
f 59/5/1 52/5/1 51/5/1
f 59/7/1 51/7/1 58/7/1
f 60/7/1 53/7/1 52/7/1
f 60/5/1 52/5/1 59/5/1
f 61/7/1 53/7/1 60/7/1
f 62/8/1 54/8/1 53/8/1
f 62/7/1 53/7/1 61/7/1
f 63/8/1 54/8/1 62/8/1
f 64/8/1 56/8/1 55/8/1
f 64/8/1 55/8/1 46/8/1
f 65/9/1 57/9/1 56/9/1
f 65/8/1 56/8/1 64/8/1
f 66/8/1 58/8/1 57/8/1
f 66/9/1 57/9/1 65/9/1
f 67/9/1 61/9/1 60/9/1
f 67/8/1 58/8/1 66/8/1
f 67/9/1 59/9/1 58/9/1
f 67/9/1 60/9/1 59/9/1
f 68/8/1 62/8/1 61/8/1
f 68/9/1 61/9/1 67/9/1
f 69/9/1 63/9/1 62/9/1
f 69/8/1 62/8/1 68/8/1
f 70/9/1 63/9/1 69/9/1
f 71/3/2 72/3/2 77/3/2
f 72/4/2 73/4/2 78/4/2
f 77/3/2 72/3/2 78/3/2
f 78/4/2 73/4/2 79/4/2
f 73/3/2 74/3/2 80/3/2
f 79/4/2 73/4/2 80/4/2
f 80/3/2 74/3/2 81/3/2
f 81/3/2 74/3/2 82/3/2
f 74/4/2 75/4/2 83/4/2
f 82/3/2 74/3/2 83/3/2
f 75/2/2 76/2/2 84/2/2
f 83/4/2 75/4/2 84/4/2
f 78/5/2 79/5/2 85/5/2
f 79/4/2 80/4/2 85/4/2
f 80/4/2 81/4/2 85/4/2
f 81/3/2 82/3/2 86/3/2
f 85/4/2 81/4/2 86/4/2
f 82/4/2 83/4/2 87/4/2
f 86/3/2 82/3/2 87/3/2
f 83/5/2 84/5/2 88/5/2
f 87/4/2 83/4/2 88/4/2
f 84/2/2 76/2/2 89/2/2
f 88/5/2 84/5/2 89/5/2
f 89/2/2 76/2/2 90/2/2
f 85/5/2 86/5/2 91/5/2
f 78/5/2 85/5/2 91/5/2
f 77/4/2 78/4/2 91/4/2
f 86/5/2 87/5/2 91/5/2
f 91/5/2 87/5/2 92/5/2
f 87/2/2 88/2/2 93/2/2
f 92/5/2 87/5/2 93/5/2
f 88/2/2 89/2/2 93/2/2
f 89/4/2 90/4/2 94/4/2
f 93/2/2 89/2/2 94/2/2
f 77/4/2 91/4/2 95/4/2
f 91/1/2 92/1/2 96/1/2
f 95/4/2 91/4/2 96/4/2
f 96/1/2 92/1/2 97/1/2
f 92/5/2 93/5/2 98/5/2
f 97/1/2 92/1/2 98/1/2
f 98/5/2 93/5/2 99/5/2
f 93/1/2 94/1/2 100/1/2
f 99/5/2 93/5/2 100/5/2
f 94/4/2 90/4/2 101/4/2
f 100/1/2 94/1/2 101/1/2
f 95/2/2 96/2/2 102/2/2
f 96/5/2 97/5/2 103/5/2
f 102/2/2 96/2/2 103/2/2
f 97/6/2 98/6/2 104/6/2
f 103/5/2 97/5/2 104/5/2
f 98/2/2 99/2/2 105/2/2
f 104/6/2 98/6/2 105/6/2
f 99/5/2 100/5/2 106/5/2
f 105/2/2 99/2/2 106/2/2
f 100/5/2 101/5/2 106/5/2
f 106/5/2 101/5/2 107/5/2
f 107/5/2 101/5/2 108/5/2
f 101/4/2 90/4/2 109/4/2
f 108/5/2 101/5/2 109/5/2
f 104/5/2 105/5/2 110/5/2
f 105/5/2 106/5/2 110/5/2
f 106/7/2 107/7/2 111/7/2
f 110/5/2 106/5/2 111/5/2
f 107/5/2 108/5/2 112/5/2
f 108/4/2 109/4/2 113/4/2
f 112/5/2 108/5/2 113/5/2
f 109/4/2 90/4/2 114/4/2
f 113/4/2 109/4/2 114/4/2
f 114/4/2 90/4/2 115/4/2
f 102/4/2 103/4/2 116/4/2
f 103/7/2 104/7/2 117/7/2
f 116/4/2 103/4/2 117/4/2
f 104/5/2 110/5/2 118/5/2
f 117/7/2 104/7/2 118/7/2
f 110/1/2 111/1/2 119/1/2
f 118/5/2 110/5/2 119/5/2
f 111/7/2 107/7/2 120/7/2
f 107/5/2 112/5/2 120/5/2
f 112/6/2 113/6/2 121/6/2
f 120/5/2 112/5/2 121/5/2
f 113/5/2 114/5/2 122/5/2
f 121/6/2 113/6/2 122/6/2
f 114/2/2 115/2/2 123/2/2
f 122/5/2 114/5/2 123/5/2
f 123/2/2 115/2/2 124/2/2
f 116/3/2 117/3/2 125/3/2
f 118/7/2 119/7/2 126/7/2
f 125/3/2 117/3/2 126/3/2
f 117/7/2 118/7/2 126/7/2
f 126/7/2 119/7/2 127/7/2
f 119/1/2 111/1/2 128/1/2
f 127/7/2 119/7/2 128/7/2
f 111/7/2 120/7/2 129/7/2
f 128/1/2 111/1/2 129/1/2
f 120/7/2 121/7/2 129/7/2
f 121/7/2 122/7/2 129/7/2
f 129/7/2 122/7/2 130/7/2
f 122/5/2 123/5/2 131/5/2
f 130/7/2 122/7/2 131/7/2
f 123/4/2 124/4/2 132/4/2
f 131/5/2 123/5/2 132/5/2
f 132/4/2 124/4/2 133/4/2
f 126/7/2 127/7/2 134/7/2
f 125/7/2 126/7/2 134/7/2
f 134/7/2 127/7/2 135/7/2
f 127/8/2 128/8/2 136/8/2
f 135/7/2 127/7/2 136/7/2
f 128/7/2 129/7/2 137/7/2
f 136/8/2 128/8/2 137/8/2
f 137/7/2 129/7/2 138/7/2
f 129/8/2 130/8/2 139/8/2
f 138/7/2 129/7/2 139/7/2
f 139/8/2 130/8/2 140/8/2
f 130/7/2 131/7/2 141/7/2
f 140/8/2 130/8/2 141/8/2
f 131/7/2 132/7/2 141/7/2
f 141/7/2 132/7/2 142/7/2
f 132/8/2 133/8/2 143/8/2
f 142/7/2 132/7/2 143/7/2
f 143/8/2 133/8/2 144/8/2
f 134/9/2 135/9/2 145/9/2
f 135/8/2 136/8/2 146/8/2
f 145/9/2 135/9/2 146/9/2
f 136/8/2 137/8/2 146/8/2
f 137/9/2 138/9/2 147/9/2
f 146/8/2 137/8/2 147/8/2
f 138/8/2 139/8/2 148/8/2
f 147/9/2 138/9/2 148/9/2
f 139/9/2 140/9/2 149/9/2
f 148/8/2 139/8/2 149/8/2
f 141/8/2 142/8/2 150/8/2
f 149/9/2 140/9/2 150/9/2
f 140/8/2 141/8/2 150/8/2
f 143/9/2 144/9/2 151/9/2
f 150/8/2 142/8/2 151/8/2
f 142/9/2 143/9/2 151/9/2
f 151/9/2 144/9/2 152/9/2
f 159/2/3 154/2/3 153/2/3
f 159/3/3 155/3/3 154/3/3
f 160/3/3 155/3/3 159/3/3
f 161/4/3 156/4/3 155/4/3
f 161/3/3 155/3/3 160/3/3
f 162/4/3 156/4/3 161/4/3
f 163/4/3 156/4/3 162/4/3
f 164/2/3 157/2/3 156/2/3
f 164/4/3 156/4/3 163/4/3
f 165/8/3 158/8/3 157/8/3
f 165/2/3 157/2/3 164/2/3
f 166/8/3 158/8/3 165/8/3
f 167/8/3 158/8/3 166/8/3
f 168/2/3 160/2/3 159/2/3
f 168/2/3 159/2/3 153/2/3
f 169/2/3 160/2/3 168/2/3
f 170/4/3 161/4/3 160/4/3
f 170/2/3 160/2/3 169/2/3
f 170/4/3 162/4/3 161/4/3
f 171/4/3 162/4/3 170/4/3
f 172/5/3 163/5/3 162/5/3
f 172/4/3 162/4/3 171/4/3
f 173/7/3 164/7/3 163/7/3
f 173/5/3 163/5/3 172/5/3
f 173/7/3 165/7/3 164/7/3
f 174/7/3 165/7/3 173/7/3
f 175/8/3 166/8/3 165/8/3
f 175/7/3 165/7/3 174/7/3
f 176/9/3 167/9/3 166/9/3
f 176/8/3 166/8/3 175/8/3
f 177/4/3 169/4/3 168/4/3
f 178/5/3 171/5/3 170/5/3
f 178/4/3 169/4/3 177/4/3
f 178/5/3 170/5/3 169/5/3
f 179/5/3 171/5/3 178/5/3
f 180/2/3 172/2/3 171/2/3
f 180/5/3 171/5/3 179/5/3
f 181/7/3 175/7/3 174/7/3
f 181/7/3 176/7/3 175/7/3
f 181/1/3 174/1/3 173/1/3
f 182/7/3 176/7/3 181/7/3
f 183/2/3 178/2/3 177/2/3
f 184/5/3 179/5/3 178/5/3
f 184/2/3 178/2/3 183/2/3
f 185/5/3 179/5/3 184/5/3
f 186/6/3 180/6/3 179/6/3
f 186/5/3 179/5/3 185/5/3
f 187/2/3 172/2/3 180/2/3
f 187/6/3 180/6/3 186/6/3
f 188/5/3 173/5/3 172/5/3
f 188/2/3 172/2/3 187/2/3
f 189/1/3 181/1/3 173/1/3
f 189/5/3 173/5/3 188/5/3
f 190/5/3 182/5/3 181/5/3
f 190/1/3 181/1/3 189/1/3
f 191/1/3 186/1/3 185/1/3
f 191/6/3 187/6/3 186/6/3
f 192/5/3 190/5/3 189/5/3
f 192/6/3 187/6/3 191/6/3
f 192/5/3 188/5/3 187/5/3
f 192/5/3 189/5/3 188/5/3
f 193/5/3 182/5/3 190/5/3
f 193/5/3 190/5/3 192/5/3
f 194/7/3 176/7/3 182/7/3
f 194/5/3 182/5/3 193/5/3
f 195/5/3 185/5/3 184/5/3
f 195/1/3 191/1/3 185/1/3
f 196/5/3 192/5/3 191/5/3
f 196/1/3 191/1/3 195/1/3
f 196/5/3 193/5/3 192/5/3
f 197/5/3 193/5/3 196/5/3
f 198/7/3 194/7/3 193/7/3
f 198/5/3 193/5/3 197/5/3
f 199/7/3 176/7/3 194/7/3
f 199/7/3 194/7/3 198/7/3
f 200/9/3 167/9/3 176/9/3
f 200/7/3 176/7/3 199/7/3
f 201/5/3 195/5/3 184/5/3
f 201/5/3 197/5/3 196/5/3
f 201/5/3 196/5/3 195/5/3
f 202/5/3 197/5/3 201/5/3
f 203/5/3 197/5/3 202/5/3
f 204/7/3 199/7/3 198/7/3
f 204/5/3 197/5/3 203/5/3
f 204/7/3 198/7/3 197/7/3
f 205/7/3 199/7/3 204/7/3
f 206/8/3 200/8/3 199/8/3
f 206/7/3 199/7/3 205/7/3
f 207/4/3 184/4/3 183/4/3
f 207/5/3 201/5/3 184/5/3
f 208/2/3 202/2/3 201/2/3
f 208/5/3 201/5/3 207/5/3
f 209/6/3 203/6/3 202/6/3
f 209/2/3 202/2/3 208/2/3
f 210/2/3 204/2/3 203/2/3
f 210/6/3 203/6/3 209/6/3
f 211/5/3 205/5/3 204/5/3
f 212/8/3 206/8/3 205/8/3
f 212/5/3 205/5/3 211/5/3
f 213/9/3 167/9/3 200/9/3
f 213/8/3 206/8/3 212/8/3
f 213/8/3 200/8/3 206/8/3
f 214/4/3 208/4/3 207/4/3
f 214/4/3 207/4/3 183/4/3
f 215/4/3 208/4/3 214/4/3
f 216/5/3 209/5/3 208/5/3
f 216/4/3 208/4/3 215/4/3
f 217/2/3 210/2/3 209/2/3
f 217/5/3 209/5/3 216/5/3
f 218/2/3 204/2/3 210/2/3
f 218/2/3 210/2/3 217/2/3
f 219/5/3 211/5/3 204/5/3
f 219/2/3 204/2/3 218/2/3
f 220/1/3 212/1/3 211/1/3
f 220/5/3 211/5/3 219/5/3
f 221/7/3 213/7/3 212/7/3
f 221/1/3 212/1/3 220/1/3
f 222/7/3 213/7/3 221/7/3
f 223/3/3 215/3/3 214/3/3
f 224/4/3 216/4/3 215/4/3
f 224/3/3 215/3/3 223/3/3
f 224/4/3 217/4/3 216/4/3
f 224/4/3 218/4/3 217/4/3
f 225/2/3 219/2/3 218/2/3
f 225/4/3 218/4/3 224/4/3
f 226/4/3 220/4/3 219/4/3
f 226/2/3 219/2/3 225/2/3
f 226/4/3 221/4/3 220/4/3
f 227/3/3 222/3/3 221/3/3
f 227/4/3 221/4/3 226/4/3
f 228/7/3 213/7/3 222/7/3
f 228/3/3 222/3/3 227/3/3
f 229/9/3 167/9/3 213/9/3
f 229/7/3 213/7/3 228/7/3
f 230/9/3 167/9/3 229/9/3
f 231/4/4 232/4/4 236/4/4
f 236/4/4 232/4/4 237/4/4
f 232/7/4 233/7/4 238/7/4
f 237/4/4 232/4/4 238/4/4
f 233/8/4 234/8/4 239/8/4
f 238/7/4 233/7/4 239/7/4
f 234/9/4 235/9/4 240/9/4
f 239/8/4 234/8/4 240/8/4
f 240/9/4 235/9/4 241/9/4
f 236/3/4 237/3/4 242/3/4
f 242/3/4 237/3/4 243/3/4
f 238/5/4 239/5/4 244/5/4
f 243/3/4 237/3/4 244/3/4
f 237/5/4 238/5/4 244/5/4
f 244/5/4 239/5/4 245/5/4
f 245/5/4 239/5/4 246/5/4
f 246/5/4 239/5/4 247/5/4
f 239/2/4 240/2/4 248/2/4
f 247/5/4 239/5/4 248/5/4
f 240/8/4 241/8/4 249/8/4
f 248/2/4 240/2/4 249/2/4
f 236/3/4 242/3/4 250/3/4
f 242/2/4 243/2/4 251/2/4
f 250/3/4 242/3/4 251/3/4
f 243/4/4 244/4/4 252/4/4
f 251/2/4 243/2/4 252/2/4
f 244/4/4 245/4/4 252/4/4
f 245/5/4 246/5/4 253/5/4
f 252/4/4 245/4/4 253/4/4
f 246/2/4 247/2/4 254/2/4
f 253/5/4 246/5/4 254/5/4
f 247/5/4 248/5/4 255/5/4
f 254/2/4 247/2/4 255/2/4
f 248/7/4 249/7/4 256/7/4
f 255/5/4 248/5/4 256/5/4
f 252/5/4 253/5/4 257/5/4
f 251/5/4 252/5/4 257/5/4
f 257/5/4 253/5/4 258/5/4
f 253/7/4 254/7/4 259/7/4
f 258/5/4 253/5/4 259/5/4
f 254/7/4 255/7/4 259/7/4
f 255/7/4 256/7/4 259/7/4
f 259/7/4 256/7/4 260/7/4
f 260/7/4 256/7/4 261/7/4
f 249/8/4 241/8/4 262/8/4
f 261/7/4 256/7/4 262/7/4
f 256/7/4 249/7/4 262/7/4
f 250/4/4 251/4/4 263/4/4
f 251/5/4 257/5/4 264/5/4
f 263/4/4 251/4/4 264/4/4
f 257/2/4 258/2/4 265/2/4
f 258/6/4 259/6/4 265/6/4
f 259/5/4 260/5/4 266/5/4
f 265/6/4 259/6/4 266/6/4
f 260/7/4 261/7/4 267/7/4
f 266/5/4 260/5/4 267/5/4
f 261/8/4 262/8/4 268/8/4
f 267/7/4 261/7/4 268/7/4
f 268/8/4 262/8/4 269/8/4
f 264/5/4 257/5/4 270/5/4
f 263/3/4 264/3/4 270/3/4
f 270/5/4 257/5/4 271/5/4
f 257/2/4 265/2/4 272/2/4
f 271/5/4 257/5/4 272/5/4
f 265/5/4 266/5/4 273/5/4
f 272/2/4 265/2/4 273/2/4
f 266/5/4 267/5/4 273/5/4
f 267/5/4 268/5/4 273/5/4
f 269/8/4 262/8/4 274/8/4
f 268/7/4 269/7/4 274/7/4
f 262/8/4 241/8/4 275/8/4
f 274/8/4 262/8/4 275/8/4
f 271/5/4 272/5/4 276/5/4
f 273/5/4 268/5/4 276/5/4
f 272/5/4 273/5/4 276/5/4
f 276/5/4 268/5/4 277/5/4
f 274/7/4 275/7/4 278/7/4
f 277/5/4 268/5/4 278/5/4
f 268/7/4 274/7/4 278/7/4
f 278/7/4 275/7/4 279/7/4
f 270/4/4 271/4/4 280/4/4
f 263/3/4 270/3/4 280/3/4
f 271/5/4 276/5/4 281/5/4
f 280/4/4 271/4/4 281/4/4
f 281/5/4 276/5/4 282/5/4
f 279/7/4 275/7/4 283/7/4
f 278/1/4 279/1/4 283/1/4
f 275/8/4 241/8/4 284/8/4
f 283/7/4 275/7/4 284/7/4
f 263/3/4 280/3/4 285/3/4
f 281/3/4 282/3/4 285/3/4
f 280/3/4 281/3/4 285/3/4
f 285/3/4 282/3/4 286/3/4
f 282/5/4 276/5/4 287/5/4
f 286/3/4 282/3/4 287/3/4
f 276/1/4 277/1/4 288/1/4
f 287/5/4 276/5/4 288/5/4
f 277/5/4 278/5/4 289/5/4
f 288/1/4 277/1/4 289/1/4
f 278/1/4 283/1/4 290/1/4
f 289/5/4 278/5/4 290/5/4
f 283/6/4 284/6/4 291/6/4
f 290/1/4 283/1/4 291/1/4
f 284/8/4 241/8/4 292/8/4
f 291/6/4 284/6/4 292/6/4
f 292/8/4 241/8/4 293/8/4
f 285/2/4 286/2/4 294/2/4
f 288/4/4 289/4/4 295/4/4
f 294/2/4 286/2/4 295/2/4
f 286/4/4 287/4/4 295/4/4
f 287/4/4 288/4/4 295/4/4
f 289/2/4 290/2/4 296/2/4
f 295/4/4 289/4/4 296/4/4
f 290/4/4 291/4/4 297/4/4
f 296/2/4 290/2/4 297/2/4
f 291/8/4 292/8/4 298/8/4
f 297/4/4 291/4/4 298/4/4
f 292/9/4 293/9/4 299/9/4
f 298/8/4 292/8/4 299/8/4
f 299/9/4 293/9/4 300/9/4
f 307/2/5 302/2/5 301/2/5
f 308/2/5 302/2/5 307/2/5
f 309/4/5 303/4/5 302/4/5
f 309/2/5 302/2/5 308/2/5
f 310/2/5 304/2/5 303/2/5
f 310/4/5 303/4/5 309/4/5
f 311/4/5 305/4/5 304/4/5
f 311/2/5 304/2/5 310/2/5
f 312/3/5 306/3/5 305/3/5
f 312/4/5 305/4/5 311/4/5
f 313/3/5 306/3/5 312/3/5
f 314/4/5 308/4/5 307/4/5
f 315/5/5 311/5/5 310/5/5
f 315/4/5 308/4/5 314/4/5
f 315/5/5 309/5/5 308/5/5
f 315/5/5 310/5/5 309/5/5
f 315/5/5 312/5/5 311/5/5
f 316/4/5 313/4/5 312/4/5
f 316/5/5 312/5/5 315/5/5
f 317/4/5 313/4/5 316/4/5
f 318/2/5 315/2/5 314/2/5
f 319/5/5 316/5/5 315/5/5
f 319/2/5 315/2/5 318/2/5
f 320/3/5 317/3/5 316/3/5
f 320/5/5 316/5/5 319/5/5
f 321/3/5 317/3/5 320/3/5
f 322/4/5 319/4/5 318/4/5
f 322/5/5 320/5/5 319/5/5
f 323/5/5 320/5/5 322/5/5
f 324/5/5 320/5/5 323/5/5
f 325/4/5 321/4/5 320/4/5
f 325/5/5 320/5/5 324/5/5
f 326/4/5 321/4/5 325/4/5
f 327/4/5 322/4/5 318/4/5
f 328/3/5 323/3/5 322/3/5
f 328/4/5 322/4/5 327/4/5
f 329/4/5 324/4/5 323/4/5
f 329/3/5 323/3/5 328/3/5
f 330/3/5 325/3/5 324/3/5
f 330/4/5 324/4/5 329/4/5
f 331/2/5 326/2/5 325/2/5
f 331/3/5 325/3/5 330/3/5
f 332/2/5 326/2/5 331/2/5
f 333/8/6 334/8/6 336/8/6
f 334/9/6 335/9/6 336/9/6
f 336/9/6 335/9/6 337/9/6
f 337/9/6 335/9/6 338/9/6
f 338/9/6 335/9/6 339/9/6
f 333/8/6 336/8/6 340/8/6
f 336/8/6 337/8/6 340/8/6
f 340/8/6 337/8/6 341/8/6
f 337/9/6 338/9/6 342/9/6
f 341/8/6 337/8/6 342/8/6
f 338/8/6 339/8/6 343/8/6
f 342/9/6 338/9/6 343/9/6
f 340/9/6 341/9/6 344/9/6
f 341/8/6 342/8/6 345/8/6
f 344/9/6 341/9/6 345/9/6
f 342/8/6 343/8/6 345/8/6
f 345/8/6 343/8/6 346/8/6
f 343/8/6 339/8/6 347/8/6
f 346/8/6 343/8/6 347/8/6
f 345/8/6 346/8/6 348/8/6
f 344/8/6 345/8/6 348/8/6
f 346/9/6 347/9/6 349/9/6
f 348/8/6 346/8/6 349/8/6
f 349/9/6 347/9/6 350/9/6
f 350/9/6 347/9/6 351/9/6
f 350/8/6 351/8/6 352/8/6
f 352/8/6 351/8/6 353/8/6
f 348/9/6 349/9/6 354/9/6
f 349/9/6 350/9/6 354/9/6
f 350/8/6 352/8/6 354/8/6
f 354/8/6 352/8/6 355/8/6
f 352/9/6 353/9/6 356/9/6
f 355/8/6 352/8/6 356/8/6
f 356/9/6 353/9/6 357/9/6
f 354/9/6 355/9/6 358/9/6
f 348/9/6 354/9/6 358/9/6
f 358/9/6 355/9/6 359/9/6
f 356/8/6 357/8/6 360/8/6
f 359/9/6 355/9/6 360/9/6
f 355/8/6 356/8/6 360/8/6
f 360/8/6 357/8/6 361/8/6
f 361/8/6 357/8/6 362/8/6
f 362/8/6 357/8/6 363/8/6
f 358/8/6 359/8/6 364/8/6
f 364/8/6 359/8/6 365/8/6
f 359/9/6 360/9/6 366/9/6
f 365/8/6 359/8/6 366/8/6
f 360/9/6 361/9/6 366/9/6
f 361/8/6 362/8/6 367/8/6
f 366/9/6 361/9/6 367/9/6
f 364/9/6 365/9/6 368/9/6
f 365/8/6 366/8/6 369/8/6
f 368/9/6 365/9/6 369/9/6
f 366/8/6 367/8/6 369/8/6
f 367/8/6 362/8/6 370/8/6
f 369/8/6 367/8/6 370/8/6
f 362/9/6 363/9/6 370/9/6
f 370/9/6 363/9/6 371/9/6
