# MagicaVoxel @ Ephtracy

# group
o 

# material
mtllib powerman.mtl
usemtl palette

# normals
vn -1 0 0
vn 1 0 0
vn 0 0 1
vn 0 0 -1
vn 0 -1 0
vn 0 1 0

# texcoords
vt 0.00585938 0.5
vt 0.0214844 0.5
vt 0.0917969 0.5
vt 0.158203 0.5
vt 0.751953 0.5
vt 0.833984 0.5
vt 0.958984 0.5
vt 0.982422 0.5
vt 0.986328 0.5

# verts
v -1 0.3 -0.1
v -1 0.3 -0.2
v -1 0.4 -0.1
v -1 0.4 -0.2
v -1 0.6 -0.1
v -1 0.6 -0.2
v -0.8 0.4 0
v -0.8 0.4 -0.1
v -0.8 0.6 0
v -0.8 0.6 -0.1
v -0.8 0.6 -0.2
v -0.8 0.7 -0.1
v -0.8 0.7 -0.2
v -0.7 0.5 -0.2
v -0.7 0.5 -0.3
v -0.7 0.6 -0.2
v -0.7 0.6 -0.3
v -0.6 1.1 -0.1
v -0.6 1.1 -0.3
v -0.6 1.2 -0.2
v -0.6 1.2 -0.3
v -0.6 1.3 -0.1
v -0.6 1.3 -0.2
v -0.5 0.5 -0.4
v -0.5 0.5 -0.6
v -0.5 0.6 -0.4
v -0.5 0.6 -0.6
v -0.5 0.9 -0.1
v -0.5 0.9 -0.2
v -0.5 1 0
v -0.5 1 -0.1
v -0.5 1.1 -0.1
v -0.5 1.1 -0.2
v -0.5 1.1 -0.3
v -0.5 1.1 -0.5
v -0.5 1.2 -0.2
v -0.5 1.2 -0.3
v -0.5 1.2 -0.4
v -0.5 1.2 -0.5
v -0.5 1.2 -0.6
v -0.5 1.3 -0.1
v -0.5 1.3 -0.2
v -0.5 1.3 -0.4
v -0.5 1.3 -0.5
v -0.5 1.4 -0.5
v -0.5 1.4 -0.6
v -0.5 1.5 0
v -0.5 1.5 -0.1
v -0.5 1.5 -0.2
v -0.5 1.5 -0.3
v -0.5 1.6 -0.1
v -0.5 1.6 -0.2
v -0.4 0.6 -0.2
v -0.4 0.6 -0.3
v -0.4 0.6 -0.4
v -0.4 0.6 -0.5
v -0.4 0.7 0
v -0.4 0.7 -0.1
v -0.4 0.7 -0.2
v -0.4 0.7 -0.3
v -0.4 0.7 -0.5
v -0.4 0.8 0
v -0.4 0.8 -0.3
v -0.4 0.9 0
v -0.4 0.9 -0.1
v -0.4 0.9 -0.2
v -0.4 0.9 -0.3
v -0.4 1 0
v -0.4 1 -0.1
v -0.4 1 -0.3
v -0.4 1 -0.4
v -0.4 1.1 0.2
v -0.4 1.1 0
v -0.4 1.1 -0.2
v -0.4 1.1 -0.4
v -0.4 1.3 0.2
v -0.4 1.3 0
v -0.3 0 0
v -0.3 0 -0.2
v -0.3 0.1 0
v -0.3 0.1 -0.1
v -0.3 0.1 -0.2
v -0.3 0.2 0
v -0.3 0.2 -0.1
v -0.3 0.2 -0.2
v -0.3 0.2 -0.3
v -0.3 0.3 0
v -0.3 0.3 -0.3
v -0.3 0.4 0
v -0.3 0.4 -0.3
v -0.3 0.5 -0.1
v -0.3 0.5 -0.3
v -0.3 0.6 0
v -0.3 0.6 -0.1
v -0.3 0.7 0.1
v -0.3 0.7 0
v -0.3 0.7 -0.1
v -0.3 0.7 -0.3
v -0.3 0.7 -0.4
v -0.3 0.8 0.1
v -0.3 0.8 0
v -0.3 0.8 -0.3
v -0.3 0.8 -0.4
v -0.3 0.9 -0.3
v -0.3 0.9 -0.4
v -0.3 1 0.1
v -0.3 1 0
v -0.3 1 -0.4
v -0.3 1 -0.5
v -0.3 1.1 0.1
v -0.3 1.1 0
v -0.3 1.1 -0.4
v -0.3 1.1 -0.5
v -0.3 1.1 -0.6
v -0.3 1.2 0.3
v -0.3 1.2 0.2
v -0.3 1.2 -0.3
v -0.3 1.2 -0.4
v -0.3 1.3 0.4
v -0.3 1.3 0.3
v -0.3 1.3 0.2
v -0.3 1.3 0.1
v -0.3 1.3 -0.3
v -0.3 1.3 -0.4
v -0.3 1.3 -0.5
v -0.3 1.3 -0.6
v -0.3 1.4 0.4
v -0.3 1.4 0.3
v -0.3 1.5 0.3
v -0.3 1.5 0.1
v -0.2 0.7 -0.4
v -0.2 0.7 -0.5
v -0.2 0.8 0.1
v -0.2 0.8 0
v -0.2 0.8 -0.4
v -0.2 0.8 -0.5
v -0.2 0.9 0.1
v -0.2 0.9 0
v -0.2 0.9 -0.3
v -0.2 0.9 -0.4
v -0.2 0.9 -0.5
v -0.2 1 0.2
v -0.2 1 0.1
v -0.2 1 0
v -0.2 1 -0.3
v -0.2 1 -0.5
v -0.2 1.1 0.2
v -0.2 1.1 0.1
v -0.2 1.2 0
v -0.2 1.2 -0.1
v -0.2 1.2 -0.6
v -0.2 1.2 -0.7
v -0.2 1.3 0
v -0.2 1.3 -0.1
v -0.2 1.3 -0.2
v -0.2 1.3 -0.3
v -0.2 1.3 -0.6
v -0.2 1.3 -0.7
v -0.2 1.4 -0.2
v -0.2 1.4 -0.3
v -0.2 1.4 -0.4
v -0.2 1.4 -0.5
v -0.2 1.5 0
v -0.2 1.5 -0.1
v -0.2 1.5 -0.3
v -0.2 1.5 -0.4
v -0.2 1.5 -0.5
v -0.2 1.5 -0.6
v -0.2 1.6 -0.1
v -0.2 1.6 -0.3
v -0.1 0.5 -0.3
v -0.1 0.5 -0.5
v -0.1 0.6 -0.3
v -0.1 0.6 -0.5
v -0.1 0.6 -0.7
v -0.1 0.7 0.1
v -0.1 0.7 0
v -0.1 0.7 -0.5
v -0.1 0.7 -0.7
v -0.1 0.8 0.1
v -0.1 0.8 0
v -0.1 1 -0.5
v -0.1 1 -0.6
v -0.1 1.1 -0.5
v -0.1 1.1 -0.6
v -0.1 1.3 -0.6
v -0.1 1.3 -0.7
v -0.1 1.4 -0.7
v -0.1 1.4 -0.8
v -0.1 1.5 0
v -0.1 1.5 -0.1
v -0.1 1.5 -0.5
v -0.1 1.5 -0.6
v -0.1 1.5 -0.7
v -0.1 1.5 -0.8
v -0.1 1.6 -0.1
v -0.1 1.6 -0.3
v -0.1 1.6 -0.5
v -0.1 1.6 -0.6
v -0.1 1.7 0
v -0.1 1.7 -0.3
v -0.1 1.7 -0.6
v -0.1 1.7 -0.7
v 0 1.3 0.1
v 0 1.3 0
v 0 1.5 0.1
v 0 1.5 0
v 0 1.7 0
v 0 1.7 -0.3
v 0 1.8 0
v 0 1.8 -0.1
v 0 1.9 -0.1
v 0 1.9 -0.3
v 0.1 0.8 0.1
v 0.1 0.8 0
v 0.1 0.9 0.1
v 0.1 0.9 0
v 0.1 1 0.2
v 0.1 1 0.1
v 0.1 1.4 0.2
v 0.1 1.4 0.1
v 0.2 0 0
v 0.2 0 -0.2
v 0.2 0.1 0
v 0.2 0.1 -0.1
v 0.2 0.1 -0.2
v 0.2 0.2 -0.1
v 0.2 0.2 -0.2
v 0.2 0.6 -0.4
v 0.2 0.6 -0.5
v 0.2 0.7 0.1
v 0.2 0.7 0
v 0.2 0.7 -0.4
v 0.2 0.7 -0.5
v 0.2 0.8 0.1
v 0.2 0.8 0
v 0.2 1.1 0.3
v 0.2 1.1 0.2
v 0.2 1.4 0.2
v 0.2 1.4 0.1
v 0.2 1.5 0.4
v 0.2 1.5 0.3
v 0.2 1.6 0.4
v 0.2 1.6 0.1
v 0.3 1.3 0.4
v 0.3 1.3 0.3
v 0.3 1.5 0.4
v 0.3 1.5 0.3
v 0.3 1.6 0.3
v 0.3 1.6 0.1
v 0.3 1.7 0.2
v 0.3 1.7 0.1
v 0.3 1.8 0.3
v 0.3 1.8 0.2
v 0.4 0.5 0
v 0.4 0.5 -0.1
v 0.4 0.6 0
v 0.4 0.6 -0.1
v 0.4 1.2 -0.5
v 0.4 1.2 -0.6
v 0.4 1.3 0
v 0.4 1.3 -0.1
v 0.4 1.3 -0.4
v 0.4 1.3 -0.5
v 0.4 1.4 0
v 0.4 1.4 -0.1
v 0.4 1.4 -0.2
v 0.4 1.4 -0.5
v 0.4 1.4 -0.6
v 0.4 1.5 -0.1
v 0.4 1.5 -0.2
v 0.4 1.6 -0.4
v 0.4 1.6 -0.5
v 0.7 0.4 0
v 0.7 0.4 -0.2
v 0.7 0.5 0
v 0.7 0.5 -0.2
v 0.9 0.3 -0.1
v 0.9 0.3 -0.2
v 0.9 0.4 -0.1
v 0.9 0.4 -0.2
v -0.9 0.3 -0.1
v -0.9 0.3 -0.2
v -0.9 0.4 -0.1
v -0.9 0.4 -0.2
v -0.7 0.4 0
v -0.7 0.4 -0.2
v -0.7 0.5 0
v -0.7 0.5 -0.2
v -0.4 0.5 0
v -0.4 0.5 -0.1
v -0.4 0.6 0
v -0.4 0.6 -0.1
v -0.4 1.2 0
v -0.4 1.2 -0.1
v -0.4 1.2 -0.5
v -0.4 1.2 -0.6
v -0.4 1.3 0
v -0.4 1.3 -0.5
v -0.4 1.4 -0.5
v -0.4 1.4 -0.6
v -0.4 1.5 0
v -0.4 1.5 -0.1
v -0.4 1.5 -0.2
v -0.4 1.6 -0.1
v -0.4 1.6 -0.2
v -0.3 0.5 -0.4
v -0.3 0.5 -0.5
v -0.3 0.5 -0.6
v -0.3 0.6 -0.4
v -0.3 0.6 -0.5
v -0.3 0.6 -0.6
v -0.3 1.3 -0.1
v -0.3 1.3 -0.2
v -0.3 1.4 -0.2
v -0.3 1.4 -0.3
v -0.3 1.5 -0.1
v -0.3 1.5 -0.3
v -0.2 0 0
v -0.2 0 -0.2
v -0.2 0.1 0
v -0.2 0.1 -0.1
v -0.2 0.1 -0.2
v -0.2 0.2 -0.1
v -0.2 0.2 -0.2
v -0.2 0.7 0.1
v -0.2 0.7 0
v -0.2 0.8 0.1
v -0.2 0.8 0
v -0.2 1.3 0.4
v -0.2 1.3 0.3
v -0.2 1.4 0.4
v -0.2 1.4 0.3
v -0.2 1.4 0.1
v -0.2 1.5 0.3
v -0.2 1.5 0.1
v -0.1 1 0.2
v -0.1 1 0.1
v -0.1 1.2 0.3
v -0.1 1.2 0.2
v -0.1 1.3 0.1
v -0.1 1.4 0.3
v -0.1 1.4 0.1
v 0 0.6 -0.6
v 0 0.6 -0.7
v 0 0.7 -0.6
v 0 0.7 -0.7
v 0 0.8 0.1
v 0 0.8 0
v 0 0.9 0.1
v 0 0.9 0
v 0 1.6 -0.6
v 0 1.6 -0.7
v 0 1.7 -0.6
v 0 1.7 -0.7
v 0.1 0.5 -0.3
v 0.1 0.5 -0.5
v 0.1 0.6 -0.3
v 0.1 0.6 -0.4
v 0.1 0.6 -0.5
v 0.1 0.6 -0.6
v 0.1 0.7 0.1
v 0.1 0.7 0
v 0.1 0.7 -0.4
v 0.1 0.7 -0.5
v 0.1 0.7 -0.6
v 0.1 0.8 0.1
v 0.1 0.8 0
v 0.1 0.9 -0.4
v 0.1 0.9 -0.5
v 0.1 1 -0.5
v 0.1 1 -0.6
v 0.1 1.1 -0.4
v 0.1 1.1 -0.6
v 0.1 1.4 0.1
v 0.1 1.4 0
v 0.1 1.4 -0.3
v 0.1 1.4 -0.4
v 0.1 1.4 -0.5
v 0.1 1.4 -0.6
v 0.1 1.4 -0.7
v 0.1 1.4 -0.8
v 0.1 1.5 0.1
v 0.1 1.5 0
v 0.1 1.5 -0.1
v 0.1 1.5 -0.2
v 0.1 1.5 -0.3
v 0.1 1.5 -0.4
v 0.1 1.5 -0.6
v 0.1 1.5 -0.7
v 0.1 1.5 -0.8
v 0.1 1.6 -0.5
v 0.1 1.6 -0.7
v 0.1 1.8 0
v 0.1 1.8 -0.1
v 0.1 1.8 -0.2
v 0.1 1.9 -0.1
v 0.1 1.9 -0.3
v 0.2 0.8 0.1
v 0.2 0.8 0
v 0.2 0.8 -0.4
v 0.2 0.8 -0.5
v 0.2 0.9 0.1
v 0.2 0.9 0
v 0.2 0.9 -0.4
v 0.2 0.9 -0.5
v 0.2 1.1 -0.5
v 0.2 1.1 -0.6
v 0.2 1.2 -0.6
v 0.2 1.2 -0.7
v 0.2 1.3 -0.4
v 0.2 1.3 -0.5
v 0.2 1.4 0
v 0.2 1.4 -0.3
v 0.2 1.4 -0.4
v 0.2 1.4 -0.6
v 0.2 1.5 0
v 0.2 1.5 -0.1
v 0.2 1.5 -0.2
v 0.2 1.5 -0.3
v 0.2 1.5 -0.6
v 0.2 1.5 -0.7
v 0.2 1.8 -0.1
v 0.2 1.8 -0.2
v 0.3 0 0
v 0.3 0 -0.2
v 0.3 0.1 0
v 0.3 0.1 -0.1
v 0.3 0.1 -0.2
v 0.3 0.2 0
v 0.3 0.2 -0.1
v 0.3 0.2 -0.2
v 0.3 0.2 -0.3
v 0.3 0.3 0
v 0.3 0.3 -0.3
v 0.3 0.4 0
v 0.3 0.4 -0.3
v 0.3 0.5 -0.1
v 0.3 0.5 -0.3
v 0.3 0.6 0
v 0.3 0.6 -0.1
v 0.3 0.7 0.1
v 0.3 0.7 0
v 0.3 0.7 -0.1
v 0.3 0.7 -0.4
v 0.3 0.7 -0.5
v 0.3 0.8 0.1
v 0.3 0.8 0
v 0.3 0.8 -0.3
v 0.3 0.8 -0.4
v 0.3 0.8 -0.5
v 0.3 0.9 0.1
v 0.3 0.9 0
v 0.3 0.9 -0.3
v 0.3 0.9 -0.4
v 0.3 1 0.2
v 0.3 1 0.1
v 0.3 1 0
v 0.3 1 -0.3
v 0.3 1 -0.4
v 0.3 1.1 0.2
v 0.3 1.1 0.1
v 0.3 1.1 0
v 0.3 1.1 -0.2
v 0.3 1.1 -0.3
v 0.3 1.2 0
v 0.3 1.2 -0.1
v 0.3 1.3 -0.3
v 0.3 1.3 -0.4
v 0.3 1.4 0.1
v 0.3 1.4 -0.1
v 0.3 1.4 -0.2
v 0.3 1.4 -0.4
v 0.4 0.6 -0.4
v 0.4 0.6 -0.5
v 0.4 0.7 0
v 0.4 0.7 -0.1
v 0.4 0.7 -0.2
v 0.4 0.7 -0.3
v 0.4 0.7 -0.4
v 0.4 0.7 -0.5
v 0.4 0.8 0
v 0.4 0.8 -0.3
v 0.4 0.9 0
v 0.4 0.9 -0.2
v 0.4 0.9 -0.3
v 0.4 1 0.1
v 0.4 1 0
v 0.4 1 -0.3
v 0.4 1 -0.4
v 0.4 1.1 0.3
v 0.4 1.1 0.1
v 0.4 1.1 0
v 0.4 1.1 -0.1
v 0.4 1.1 -0.2
v 0.4 1.1 -0.3
v 0.4 1.1 -0.4
v 0.4 1.2 0
v 0.4 1.2 -0.1
v 0.4 1.3 0.4
v 0.4 1.3 0.3
v 0.4 1.3 0.2
v 0.4 1.3 0.1
v 0.4 1.5 0.2
v 0.4 1.5 0.1
v 0.4 1.6 0.4
v 0.4 1.6 0.3
v 0.4 1.7 0.2
v 0.4 1.7 0.1
v 0.4 1.8 0.3
v 0.4 1.8 0.2
v 0.5 0.6 -0.2
v 0.5 0.6 -0.3
v 0.5 0.7 -0.2
v 0.5 0.7 -0.3
v 0.5 0.7 -0.4
v 0.5 0.8 -0.3
v 0.5 0.8 -0.4
v 0.5 0.9 0
v 0.5 0.9 -0.2
v 0.5 1.1 0
v 0.5 1.1 -0.1
v 0.5 1.1 -0.3
v 0.5 1.1 -0.5
v 0.5 1.2 -0.4
v 0.5 1.2 -0.5
v 0.5 1.3 0.2
v 0.5 1.3 0.1
v 0.5 1.3 0
v 0.5 1.3 -0.1
v 0.5 1.3 -0.3
v 0.5 1.3 -0.4
v 0.5 1.4 0
v 0.5 1.4 -0.1
v 0.5 1.4 -0.4
v 0.5 1.4 -0.5
v 0.5 1.5 0.2
v 0.5 1.5 0.1
v 0.5 1.5 -0.1
v 0.5 1.5 -0.2
v 0.5 1.6 -0.4
v 0.5 1.6 -0.5
v 0.6 0.6 -0.3
v 0.6 0.6 -0.4
v 0.6 0.7 -0.3
v 0.6 0.7 -0.4
v 0.6 1.2 -0.4
v 0.6 1.2 -0.6
v 0.6 1.4 -0.4
v 0.6 1.4 -0.6
v 0.7 0.5 -0.2
v 0.7 0.5 -0.3
v 0.7 0.6 -0.2
v 0.7 0.6 -0.3
v 0.8 0.4 0
v 0.8 0.4 -0.1
v 0.8 0.6 0
v 0.8 0.6 -0.1
v 0.8 0.6 -0.2
v 0.8 0.7 -0.1
v 0.8 0.7 -0.2
v 1 0.3 -0.1
v 1 0.3 -0.2
v 1 0.4 -0.1
v 1 0.4 -0.2
v 1 0.6 -0.1
v 1 0.6 -0.2
v -0.3 1.3 0.4
v -0.3 1.4 0.4
v -0.2 1.3 0.4
v -0.2 1.4 0.4
v 0.2 1.5 0.4
v 0.2 1.6 0.4
v 0.3 1.3 0.4
v 0.3 1.5 0.4
v 0.4 1.3 0.4
v 0.4 1.6 0.4
v -0.3 1.2 0.3
v -0.3 1.3 0.3
v -0.3 1.4 0.3
v -0.3 1.5 0.3
v -0.2 1.3 0.3
v -0.2 1.4 0.3
v -0.2 1.5 0.3
v -0.1 1.2 0.3
v -0.1 1.4 0.3
v 0.2 1.1 0.3
v 0.2 1.5 0.3
v 0.3 1.3 0.3
v 0.3 1.5 0.3
v 0.3 1.6 0.3
v 0.3 1.8 0.3
v 0.4 1.1 0.3
v 0.4 1.3 0.3
v 0.4 1.6 0.3
v 0.4 1.8 0.3
v -0.4 1.1 0.2
v -0.4 1.3 0.2
v -0.3 1.2 0.2
v -0.3 1.3 0.2
v -0.2 1 0.2
v -0.2 1.1 0.2
v -0.1 1 0.2
v -0.1 1.2 0.2
v 0.1 1 0.2
v 0.1 1.4 0.2
v 0.2 1.1 0.2
v 0.2 1.4 0.2
v 0.3 1 0.2
v 0.3 1.1 0.2
v 0.4 1.3 0.2
v 0.4 1.5 0.2
v 0.5 1.3 0.2
v 0.5 1.5 0.2
v -0.3 0.7 0.1
v -0.3 0.8 0.1
v -0.3 1 0.1
v -0.3 1.1 0.1
v -0.2 0.7 0.1
v -0.2 0.8 0.1
v -0.2 0.9 0.1
v -0.2 1 0.1
v -0.2 1.1 0.1
v -0.1 0.7 0.1
v -0.1 0.8 0.1
v -0.1 1 0.1
v -0.1 1.3 0.1
v 0 0.8 0.1
v 0 0.9 0.1
v 0 1.3 0.1
v 0 1.5 0.1
v 0.1 0.7 0.1
v 0.1 0.8 0.1
v 0.1 0.9 0.1
v 0.1 1 0.1
v 0.1 1.4 0.1
v 0.1 1.5 0.1
v 0.2 0.7 0.1
v 0.2 0.8 0.1
v 0.2 0.9 0.1
v 0.3 0.7 0.1
v 0.3 0.8 0.1
v 0.3 0.9 0.1
v 0.3 1 0.1
v 0.3 1.1 0.1
v 0.4 1 0.1
v 0.4 1.1 0.1
v -0.8 0.4 0
v -0.8 0.6 0
v -0.7 0.4 0
v -0.7 0.5 0
v -0.5 1 0
v -0.5 1.5 0
v -0.4 0.5 0
v -0.4 0.6 0
v -0.4 0.7 0
v -0.4 0.8 0
v -0.4 0.9 0
v -0.4 1 0
v -0.4 1.1 0
v -0.4 1.3 0
v -0.4 1.5 0
v -0.3 0 0
v -0.3 0.1 0
v -0.3 0.2 0
v -0.3 0.3 0
v -0.3 0.4 0
v -0.3 0.6 0
v -0.3 0.7 0
v -0.3 0.8 0
v -0.3 1 0
v -0.3 1.1 0
v -0.2 0 0
v -0.2 0.1 0
v -0.2 0.5 0
v -0.2 0.6 0
v -0.2 0.7 0
v -0.2 0.8 0
v -0.2 0.9 0
v -0.2 1 0
v -0.2 1.3 0
v -0.2 1.5 0
v -0.1 0.6 0
v -0.1 0.7 0
v -0.1 0.8 0
v -0.1 1.5 0
v -0.1 1.7 0
v 0 0.8 0
v 0 0.9 0
v 0 1.3 0
v 0 1.5 0
v 0 1.7 0
v 0 1.8 0
v 0.1 0.6 0
v 0.1 0.7 0
v 0.1 0.8 0
v 0.1 0.9 0
v 0.1 1.4 0
v 0.1 1.5 0
v 0.1 1.8 0
v 0.2 0 0
v 0.2 0.1 0
v 0.2 0.5 0
v 0.2 0.6 0
v 0.2 0.7 0
v 0.2 0.8 0
v 0.2 0.9 0
v 0.2 1.4 0
v 0.2 1.5 0
v 0.3 0 0
v 0.3 0.1 0
v 0.3 0.2 0
v 0.3 0.3 0
v 0.3 0.4 0
v 0.3 0.6 0
v 0.3 0.7 0
v 0.3 0.8 0
v 0.3 0.9 0
v 0.3 1 0
v 0.3 1.1 0
v 0.3 1.2 0
v 0.4 0.5 0
v 0.4 0.6 0
v 0.4 0.7 0
v 0.4 0.8 0
v 0.4 0.9 0
v 0.4 1 0
v 0.4 1.1 0
v 0.4 1.2 0
v 0.4 1.3 0
v 0.4 1.4 0
v 0.5 0.9 0
v 0.5 1.1 0
v 0.5 1.3 0
v 0.5 1.4 0
v 0.7 0.4 0
v 0.7 0.5 0
v 0.8 0.4 0
v 0.8 0.6 0
v -1 0.3 -0.1
v -1 0.4 -0.1
v -1 0.6 -0.1
v -0.9 0.3 -0.1
v -0.9 0.4 -0.1
v -0.8 0.4 -0.1
v -0.8 0.6 -0.1
v -0.8 0.7 -0.1
v -0.6 1.1 -0.1
v -0.6 1.3 -0.1
v -0.5 0.9 -0.1
v -0.5 1 -0.1
v -0.5 1.1 -0.1
v -0.5 1.3 -0.1
v -0.5 1.5 -0.1
v -0.5 1.6 -0.1
v -0.4 0.5 -0.1
v -0.4 0.6 -0.1
v -0.4 0.7 -0.1
v -0.4 0.9 -0.1
v -0.4 1 -0.1
v -0.4 1.2 -0.1
v -0.4 1.5 -0.1
v -0.4 1.6 -0.1
v -0.3 0.1 -0.1
v -0.3 0.2 -0.1
v -0.3 0.5 -0.1
v -0.3 0.6 -0.1
v -0.3 0.7 -0.1
v -0.3 1.3 -0.1
v -0.3 1.5 -0.1
v -0.2 0.1 -0.1
v -0.2 0.2 -0.1
v -0.2 1.2 -0.1
v -0.2 1.3 -0.1
v -0.2 1.5 -0.1
v -0.2 1.6 -0.1
v -0.1 1.5 -0.1
v -0.1 1.6 -0.1
v 0 1.8 -0.1
v 0 1.9 -0.1
v 0.1 1.5 -0.1
v 0.1 1.8 -0.1
v 0.1 1.9 -0.1
v 0.2 0.1 -0.1
v 0.2 0.2 -0.1
v 0.2 1.5 -0.1
v 0.2 1.8 -0.1
v 0.3 0.1 -0.1
v 0.3 0.2 -0.1
v 0.3 0.5 -0.1
v 0.3 0.6 -0.1
v 0.3 0.7 -0.1
v 0.3 1.2 -0.1
v 0.3 1.4 -0.1
v 0.4 0.5 -0.1
v 0.4 0.6 -0.1
v 0.4 0.7 -0.1
v 0.4 1.1 -0.1
v 0.4 1.2 -0.1
v 0.4 1.3 -0.1
v 0.4 1.4 -0.1
v 0.4 1.5 -0.1
v 0.5 1.1 -0.1
v 0.5 1.3 -0.1
v 0.5 1.4 -0.1
v 0.5 1.5 -0.1
v 0.8 0.4 -0.1
v 0.8 0.6 -0.1
v 0.8 0.7 -0.1
v 0.9 0.3 -0.1
v 0.9 0.4 -0.1
v 1 0.3 -0.1
v 1 0.4 -0.1
v 1 0.6 -0.1
v -0.3 1.3 -0.2
v -0.3 1.4 -0.2
v -0.2 1.3 -0.2
v -0.2 1.4 -0.2
v 0.3 1.1 -0.3
v 0.3 1.3 -0.3
v 0.4 0.7 -0.3
v 0.4 0.8 -0.3
v 0.4 1.1 -0.3
v 0.5 0.6 -0.3
v 0.5 0.7 -0.3
v 0.5 0.8 -0.3
v 0.5 1.1 -0.3
v 0.5 1.3 -0.3
v 0.6 0.6 -0.3
v 0.6 0.7 -0.3
v -0.5 0.5 -0.4
v -0.5 0.6 -0.4
v -0.5 1.2 -0.4
v -0.5 1.3 -0.4
v -0.4 0.5 -0.4
v -0.4 0.6 -0.4
v -0.3 0.5 -0.4
v -0.3 0.6 -0.4
v -0.3 1.2 -0.4
v -0.3 1.3 -0.4
v 0.4 1.3 -0.4
v 0.4 1.6 -0.4
v 0.5 1.2 -0.4
v 0.5 1.3 -0.4
v 0.5 1.4 -0.4
v 0.5 1.6 -0.4
v 0.6 1.2 -0.4
v 0.6 1.4 -0.4
v -0.5 1.3 -0.5
v -0.5 1.4 -0.5
v -0.4 1.3 -0.5
v -0.4 1.4 -0.5
v -0.2 1.4 -0.5
v -0.2 1.5 -0.5
v -0.1 1.5 -0.5
v -0.1 1.6 -0.5
v 0.1 1.4 -0.5
v 0.1 1.6 -0.5
v -0.1 1.6 -0.6
v -0.1 1.7 -0.6
v 0 1.6 -0.6
v 0 1.7 -0.6
v 0.1 1.4 -0.6
v 0.1 1.5 -0.6
v 0.2 1.4 -0.6
v 0.2 1.5 -0.6
v 0.3 1.7 0.2
v 0.3 1.8 0.2
v 0.4 1.7 0.2
v 0.4 1.8 0.2
v -0.3 1.3 0.1
v -0.3 1.5 0.1
v -0.2 1.4 0.1
v -0.2 1.5 0.1
v -0.1 1.3 0.1
v -0.1 1.4 0.1
v 0.2 1.4 0.1
v 0.2 1.6 0.1
v 0.3 1.1 0.1
v 0.3 1.4 0.1
v 0.3 1.6 0.1
v 0.3 1.7 0.1
v 0.4 1.1 0.1
v 0.4 1.3 0.1
v 0.4 1.5 0.1
v 0.4 1.7 0.1
v 0.5 1.3 0.1
v 0.5 1.5 0.1
v -0.4 1.2 0
v -0.4 1.3 0
v -0.2 1.2 0
v -0.2 1.3 0
v -1 0.3 -0.2
v -1 0.4 -0.2
v -1 0.6 -0.2
v -0.9 0.3 -0.2
v -0.9 0.4 -0.2
v -0.8 0.6 -0.2
v -0.8 0.7 -0.2
v -0.7 0.4 -0.2
v -0.7 0.5 -0.2
v -0.7 0.6 -0.2
v -0.6 1.2 -0.2
v -0.6 1.3 -0.2
v -0.5 0.9 -0.2
v -0.5 1.1 -0.2
v -0.5 1.2 -0.2
v -0.5 1.3 -0.2
v -0.5 1.5 -0.2
v -0.5 1.6 -0.2
v -0.4 0.6 -0.2
v -0.4 0.7 -0.2
v -0.4 0.9 -0.2
v -0.4 1.1 -0.2
v -0.4 1.5 -0.2
v -0.4 1.6 -0.2
v -0.3 0 -0.2
v -0.3 0.1 -0.2
v -0.3 0.2 -0.2
v -0.2 0 -0.2
v -0.2 0.1 -0.2
v -0.2 0.2 -0.2
v 0.1 1.5 -0.2
v 0.1 1.8 -0.2
v 0.2 0 -0.2
v 0.2 0.1 -0.2
v 0.2 0.2 -0.2
v 0.2 1.5 -0.2
v 0.2 1.8 -0.2
v 0.3 0 -0.2
v 0.3 0.1 -0.2
v 0.3 0.2 -0.2
v 0.3 1.1 -0.2
v 0.3 1.4 -0.2
v 0.4 0.9 -0.2
v 0.4 1.1 -0.2
v 0.4 1.4 -0.2
v 0.4 1.5 -0.2
v 0.5 0.6 -0.2
v 0.5 0.7 -0.2
v 0.5 0.9 -0.2
v 0.5 1.5 -0.2
v 0.7 0.4 -0.2
v 0.7 0.5 -0.2
v 0.7 0.6 -0.2
v 0.8 0.6 -0.2
v 0.8 0.7 -0.2
v 0.9 0.3 -0.2
v 0.9 0.4 -0.2
v 1 0.3 -0.2
v 1 0.4 -0.2
v 1 0.6 -0.2
v -0.7 0.5 -0.3
v -0.7 0.6 -0.3
v -0.6 1.1 -0.3
v -0.6 1.2 -0.3
v -0.5 1.1 -0.3
v -0.5 1.2 -0.3
v -0.5 1.5 -0.3
v -0.4 0.6 -0.3
v -0.4 0.7 -0.3
v -0.4 0.8 -0.3
v -0.4 0.9 -0.3
v -0.4 1 -0.3
v -0.3 0.2 -0.3
v -0.3 0.3 -0.3
v -0.3 0.4 -0.3
v -0.3 0.5 -0.3
v -0.3 0.7 -0.3
v -0.3 0.8 -0.3
v -0.3 0.9 -0.3
v -0.3 1.2 -0.3
v -0.3 1.3 -0.3
v -0.3 1.4 -0.3
v -0.3 1.5 -0.3
v -0.2 0.5 -0.3
v -0.2 0.6 -0.3
v -0.2 0.9 -0.3
v -0.2 1 -0.3
v -0.2 1.3 -0.3
v -0.2 1.4 -0.3
v -0.2 1.5 -0.3
v -0.2 1.6 -0.3
v -0.1 0.5 -0.3
v -0.1 0.6 -0.3
v -0.1 1.6 -0.3
v -0.1 1.7 -0.3
v 0 1.7 -0.3
v 0 1.9 -0.3
v 0.1 0.5 -0.3
v 0.1 0.6 -0.3
v 0.1 1.4 -0.3
v 0.1 1.5 -0.3
v 0.1 1.9 -0.3
v 0.2 0.5 -0.3
v 0.2 0.6 -0.3
v 0.2 1.4 -0.3
v 0.2 1.5 -0.3
v 0.3 0.2 -0.3
v 0.3 0.3 -0.3
v 0.3 0.4 -0.3
v 0.3 0.5 -0.3
v 0.3 0.6 -0.3
v 0.3 0.8 -0.3
v 0.3 0.9 -0.3
v 0.3 1 -0.3
v 0.4 0.8 -0.3
v 0.4 0.9 -0.3
v 0.4 1 -0.3
v 0.6 0.6 -0.3
v 0.7 0.5 -0.3
v 0.7 0.6 -0.3
v -0.4 1 -0.4
v -0.4 1.1 -0.4
v -0.3 0.7 -0.4
v -0.3 0.8 -0.4
v -0.3 0.9 -0.4
v -0.3 1 -0.4
v -0.3 1.1 -0.4
v -0.2 0.7 -0.4
v -0.2 0.8 -0.4
v -0.2 0.9 -0.4
v -0.2 1.4 -0.4
v -0.2 1.5 -0.4
v 0.1 0.6 -0.4
v 0.1 0.7 -0.4
v 0.1 0.9 -0.4
v 0.1 1.1 -0.4
v 0.1 1.4 -0.4
v 0.1 1.5 -0.4
v 0.2 0.6 -0.4
v 0.2 0.7 -0.4
v 0.2 0.8 -0.4
v 0.2 0.9 -0.4
v 0.2 1.3 -0.4
v 0.2 1.4 -0.4
v 0.3 0.7 -0.4
v 0.3 0.8 -0.4
v 0.3 0.9 -0.4
v 0.3 1 -0.4
v 0.3 1.3 -0.4
v 0.3 1.4 -0.4
v 0.4 0.6 -0.4
v 0.4 0.7 -0.4
v 0.4 1 -0.4
v 0.4 1.1 -0.4
v 0.5 0.7 -0.4
v 0.5 0.8 -0.4
v 0.6 0.6 -0.4
v 0.6 0.7 -0.4
v -0.5 1.1 -0.5
v -0.5 1.2 -0.5
v -0.4 0.6 -0.5
v -0.4 0.7 -0.5
v -0.4 1.2 -0.5
v -0.4 1.3 -0.5
v -0.3 0.6 -0.5
v -0.3 1 -0.5
v -0.3 1.1 -0.5
v -0.3 1.3 -0.5
v -0.2 0.7 -0.5
v -0.2 0.8 -0.5
v -0.2 0.9 -0.5
v -0.2 1 -0.5
v -0.1 0.5 -0.5
v -0.1 0.6 -0.5
v -0.1 0.7 -0.5
v -0.1 1 -0.5
v -0.1 1.1 -0.5
v 0.1 0.5 -0.5
v 0.1 0.6 -0.5
v 0.1 0.7 -0.5
v 0.1 0.9 -0.5
v 0.1 1 -0.5
v 0.2 0.6 -0.5
v 0.2 0.7 -0.5
v 0.2 0.8 -0.5
v 0.2 0.9 -0.5
v 0.2 1.1 -0.5
v 0.2 1.3 -0.5
v 0.3 0.6 -0.5
v 0.3 0.7 -0.5
v 0.3 0.8 -0.5
v 0.4 0.6 -0.5
v 0.4 0.7 -0.5
v 0.4 1.2 -0.5
v 0.4 1.3 -0.5
v 0.4 1.4 -0.5
v 0.4 1.6 -0.5
v 0.5 1.1 -0.5
v 0.5 1.2 -0.5
v 0.5 1.4 -0.5
v 0.5 1.6 -0.5
v -0.5 0.5 -0.6
v -0.5 0.6 -0.6
v -0.5 1.2 -0.6
v -0.5 1.4 -0.6
v -0.4 1.2 -0.6
v -0.4 1.4 -0.6
v -0.3 0.5 -0.6
v -0.3 0.6 -0.6
v -0.3 1.1 -0.6
v -0.3 1.3 -0.6
v -0.2 1.2 -0.6
v -0.2 1.3 -0.6
v -0.2 1.5 -0.6
v -0.1 1 -0.6
v -0.1 1.1 -0.6
v -0.1 1.3 -0.6
v -0.1 1.5 -0.6
v 0 0.6 -0.6
v 0 0.7 -0.6
v 0.1 0.6 -0.6
v 0.1 0.7 -0.6
v 0.1 1 -0.6
v 0.1 1.1 -0.6
v 0.2 1.1 -0.6
v 0.2 1.2 -0.6
v 0.4 1.2 -0.6
v 0.4 1.4 -0.6
v 0.6 1.2 -0.6
v 0.6 1.4 -0.6
v -0.2 1.2 -0.7
v -0.2 1.3 -0.7
v -0.1 0.6 -0.7
v -0.1 0.7 -0.7
v -0.1 1.3 -0.7
v -0.1 1.4 -0.7
v -0.1 1.5 -0.7
v -0.1 1.7 -0.7
v 0 0.6 -0.7
v 0 0.7 -0.7
v 0 1.6 -0.7
v 0 1.7 -0.7
v 0.1 1.4 -0.7
v 0.1 1.5 -0.7
v 0.1 1.6 -0.7
v 0.2 1.2 -0.7
v 0.2 1.5 -0.7
v -0.1 1.4 -0.8
v -0.1 1.5 -0.8
v 0.1 1.4 -0.8
v 0.1 1.5 -0.8
v -0.3 0 0
v -0.2 0 0
v 0.2 0 0
v 0.3 0 0
v -0.3 0 -0.2
v -0.2 0 -0.2
v 0.2 0 -0.2
v 0.3 0 -0.2
v -0.3 0.2 0
v 0.3 0.2 0
v -0.3 0.2 -0.1
v -0.2 0.2 -0.1
v 0.2 0.2 -0.1
v 0.3 0.2 -0.1
v -0.3 0.2 -0.2
v -0.2 0.2 -0.2
v 0.2 0.2 -0.2
v 0.3 0.2 -0.2
v -0.3 0.2 -0.3
v 0.3 0.2 -0.3
v -1 0.3 -0.1
v -0.9 0.3 -0.1
v 0.9 0.3 -0.1
v 1 0.3 -0.1
v -1 0.3 -0.2
v -0.9 0.3 -0.2
v 0.9 0.3 -0.2
v 1 0.3 -0.2
v -0.8 0.4 0
v -0.7 0.4 0
v 0.7 0.4 0
v 0.8 0.4 0
v -0.9 0.4 -0.1
v -0.8 0.4 -0.1
v 0.8 0.4 -0.1
v 0.9 0.4 -0.1
v -0.9 0.4 -0.2
v -0.7 0.4 -0.2
v 0.7 0.4 -0.2
v 0.9 0.4 -0.2
v -0.7 0.5 0
v -0.4 0.5 0
v 0.4 0.5 0
v 0.7 0.5 0
v -0.4 0.5 -0.1
v -0.3 0.5 -0.1
v 0.3 0.5 -0.1
v 0.4 0.5 -0.1
v -0.7 0.5 -0.2
v 0.7 0.5 -0.2
v -0.7 0.5 -0.3
v -0.3 0.5 -0.3
v -0.1 0.5 -0.3
v 0.1 0.5 -0.3
v 0.3 0.5 -0.3
v 0.7 0.5 -0.3
v -0.5 0.5 -0.4
v -0.4 0.5 -0.4
v -0.3 0.5 -0.4
v -0.4 0.5 -0.5
v -0.3 0.5 -0.5
v -0.1 0.5 -0.5
v 0.1 0.5 -0.5
v -0.5 0.5 -0.6
v -0.3 0.5 -0.6
v -0.4 0.6 -0.3
v -0.2 0.6 -0.3
v -0.1 0.6 -0.3
v 0.1 0.6 -0.3
v 0.2 0.6 -0.3
v 0.3 0.6 -0.3
v 0.6 0.6 -0.3
v -0.4 0.6 -0.4
v -0.3 0.6 -0.4
v 0.1 0.6 -0.4
v 0.2 0.6 -0.4
v 0.3 0.6 -0.4
v 0.4 0.6 -0.4
v 0.6 0.6 -0.4
v -0.3 0.6 -0.5
v -0.1 0.6 -0.5
v 0.1 0.6 -0.5
v 0.2 0.6 -0.5
v 0.3 0.6 -0.5
v 0.4 0.6 -0.5
v 0 0.6 -0.6
v 0.1 0.6 -0.6
v -0.1 0.6 -0.7
v 0 0.6 -0.7
v -0.3 0.7 0.1
v -0.2 0.7 0.1
v -0.1 0.7 0.1
v 0.1 0.7 0.1
v 0.2 0.7 0.1
v 0.3 0.7 0.1
v -0.4 0.7 0
v -0.3 0.7 0
v -0.2 0.7 0
v -0.1 0.7 0
v 0.1 0.7 0
v 0.2 0.7 0
v 0.3 0.7 0
v 0.4 0.7 0
v -0.4 0.7 -0.1
v -0.3 0.7 -0.1
v 0.3 0.7 -0.1
v 0.4 0.7 -0.1
v 0.1 0.7 -0.4
v 0.2 0.7 -0.4
v 0.1 0.7 -0.5
v 0.2 0.7 -0.5
v -0.2 0.8 0.1
v -0.1 0.8 0.1
v 0.1 0.8 0.1
v 0.2 0.8 0.1
v -0.2 0.8 0
v -0.1 0.8 0
v 0.1 0.8 0
v 0.2 0.8 0
v 0 0.9 0.1
v 0.1 0.9 0.1
v 0.2 0.9 0.1
v 0.3 0.9 0.1
v 0 0.9 0
v 0.1 0.9 0
v 0.2 0.9 0
v 0.3 0.9 0
v 0.4 0.9 0
v 0.5 0.9 0
v -0.5 0.9 -0.1
v -0.4 0.9 -0.1
v -0.5 0.9 -0.2
v -0.4 0.9 -0.2
v 0.4 0.9 -0.2
v 0.5 0.9 -0.2
v -0.2 1 0.2
v -0.1 1 0.2
v 0.1 1 0.2
v 0.3 1 0.2
v -0.3 1 0.1
v -0.2 1 0.1
v -0.1 1 0.1
v 0.1 1 0.1
v 0.3 1 0.1
v 0.4 1 0.1
v -0.5 1 0
v -0.4 1 0
v -0.3 1 0
v -0.2 1 0
v 0.3 1 0
v 0.4 1 0
v -0.5 1 -0.1
v -0.4 1 -0.1
v -0.4 1 -0.3
v -0.2 1 -0.3
v 0.3 1 -0.3
v 0.4 1 -0.3
v -0.4 1 -0.4
v -0.3 1 -0.4
v 0.3 1 -0.4
v 0.4 1 -0.4
v -0.3 1 -0.5
v -0.2 1 -0.5
v -0.1 1 -0.5
v 0.1 1 -0.5
v -0.1 1 -0.6
v 0.1 1 -0.6
v 0.2 1.1 0.3
v 0.4 1.1 0.3
v -0.4 1.1 0.2
v -0.2 1.1 0.2
v 0.2 1.1 0.2
v 0.3 1.1 0.2
v -0.3 1.1 0.1
v -0.2 1.1 0.1
v 0.3 1.1 0.1
v 0.4 1.1 0.1
v -0.4 1.1 0
v -0.3 1.1 0
v -0.6 1.1 -0.1
v -0.5 1.1 -0.1
v -0.5 1.1 -0.2
v -0.4 1.1 -0.2
v -0.6 1.1 -0.3
v -0.5 1.1 -0.3
v 0.4 1.1 -0.3
v 0.5 1.1 -0.3
v -0.4 1.1 -0.4
v -0.3 1.1 -0.4
v 0.1 1.1 -0.4
v 0.4 1.1 -0.4
v -0.5 1.1 -0.5
v -0.3 1.1 -0.5
v -0.1 1.1 -0.5
v 0.2 1.1 -0.5
v 0.5 1.1 -0.5
v -0.3 1.1 -0.6
v -0.1 1.1 -0.6
v 0.1 1.1 -0.6
v 0.2 1.1 -0.6
v -0.3 1.2 0.3
v -0.1 1.2 0.3
v -0.3 1.2 0.2
v -0.1 1.2 0.2
v 0.5 1.2 -0.4
v 0.6 1.2 -0.4
v -0.5 1.2 -0.5
v -0.4 1.2 -0.5
v 0.4 1.2 -0.5
v 0.5 1.2 -0.5
v -0.5 1.2 -0.6
v -0.4 1.2 -0.6
v -0.2 1.2 -0.6
v 0.2 1.2 -0.6
v 0.4 1.2 -0.6
v 0.6 1.2 -0.6
v -0.2 1.2 -0.7
v 0.2 1.2 -0.7
v -0.3 1.3 0.4
v -0.2 1.3 0.4
v 0.3 1.3 0.4
v 0.4 1.3 0.4
v -0.3 1.3 0.3
v -0.2 1.3 0.3
v 0.3 1.3 0.3
v 0.4 1.3 0.3
v 0.4 1.3 0.2
v 0.5 1.3 0.2
v 0.4 1.3 0.1
v 0.5 1.3 0.1
v 0.4 1.3 0
v 0.5 1.3 0
v 0.4 1.3 -0.1
v 0.5 1.3 -0.1
v -0.1 1.4 -0.7
v 0.1 1.4 -0.7
v -0.1 1.4 -0.8
v 0.1 1.4 -0.8
v 0.2 1.5 0.4
v 0.3 1.5 0.4
v 0.2 1.5 0.3
v 0.3 1.5 0.3
v -0.3 0.1 0
v -0.2 0.1 0
v 0.2 0.1 0
v 0.3 0.1 0
v -0.3 0.1 -0.1
v -0.2 0.1 -0.1
v 0.2 0.1 -0.1
v 0.3 0.1 -0.1
v -0.8 0.6 0
v -0.4 0.6 0
v 0.4 0.6 0
v 0.8 0.6 0
v -1 0.6 -0.1
v -0.8 0.6 -0.1
v -0.4 0.6 -0.1
v 0.4 0.6 -0.1
v 0.8 0.6 -0.1
v 1 0.6 -0.1
v -1 0.6 -0.2
v -0.8 0.6 -0.2
v -0.7 0.6 -0.2
v -0.4 0.6 -0.2
v 0.5 0.6 -0.2
v 0.7 0.6 -0.2
v 0.8 0.6 -0.2
v 1 0.6 -0.2
v -0.7 0.6 -0.3
v -0.4 0.6 -0.3
v 0.5 0.6 -0.3
v 0.6 0.6 -0.3
v 0.7 0.6 -0.3
v -0.5 0.6 -0.4
v -0.4 0.6 -0.4
v -0.4 0.6 -0.5
v -0.3 0.6 -0.5
v -0.5 0.6 -0.6
v -0.3 0.6 -0.6
v -0.8 0.7 -0.1
v -0.4 0.7 -0.1
v 0.4 0.7 -0.1
v 0.8 0.7 -0.1
v -0.8 0.7 -0.2
v -0.4 0.7 -0.2
v 0.4 0.7 -0.2
v 0.5 0.7 -0.2
v 0.8 0.7 -0.2
v -0.4 0.7 -0.3
v -0.3 0.7 -0.3
v 0.4 0.7 -0.3
v 0.5 0.7 -0.3
v 0.6 0.7 -0.3
v -0.3 0.7 -0.4
v -0.2 0.7 -0.4
v 0.3 0.7 -0.4
v 0.4 0.7 -0.4
v 0.5 0.7 -0.4
v 0.6 0.7 -0.4
v -0.4 0.7 -0.5
v -0.2 0.7 -0.5
v -0.1 0.7 -0.5
v 0.1 0.7 -0.5
v 0.3 0.7 -0.5
v 0.4 0.7 -0.5
v 0 0.7 -0.6
v 0.1 0.7 -0.6
v -0.1 0.7 -0.7
v 0 0.7 -0.7
v -0.3 0.8 0.1
v -0.2 0.8 0.1
v 0 0.8 0.1
v 0.1 0.8 0.1
v 0.2 0.8 0.1
v 0.3 0.8 0.1
v -0.3 0.8 0
v -0.2 0.8 0
v 0 0.8 0
v 0.1 0.8 0
v 0.2 0.8 0
v 0.3 0.8 0
v 0.3 0.8 -0.3
v 0.4 0.8 -0.3
v 0.5 0.8 -0.3
v 0.2 0.8 -0.4
v 0.3 0.8 -0.4
v 0.5 0.8 -0.4
v 0.2 0.8 -0.5
v 0.3 0.8 -0.5
v -0.3 0.9 -0.3
v -0.2 0.9 -0.3
v -0.3 0.9 -0.4
v -0.2 0.9 -0.4
v 0.1 0.9 -0.4
v 0.2 0.9 -0.4
v 0.1 0.9 -0.5
v 0.2 0.9 -0.5
v 0.3 1.1 0.1
v 0.4 1.1 0.1
v 0.3 1.1 0
v 0.4 1.1 0
v 0.5 1.1 0
v 0.4 1.1 -0.1
v 0.5 1.1 -0.1
v 0.3 1.1 -0.2
v 0.4 1.1 -0.2
v 0.3 1.1 -0.3
v 0.4 1.1 -0.3
v -0.4 1.2 0
v -0.2 1.2 0
v 0.3 1.2 0
v 0.4 1.2 0
v -0.4 1.2 -0.1
v -0.2 1.2 -0.1
v 0.3 1.2 -0.1
v 0.4 1.2 -0.1
v -0.6 1.2 -0.2
v -0.5 1.2 -0.2
v -0.6 1.2 -0.3
v -0.5 1.2 -0.3
v -0.3 1.2 -0.3
v -0.5 1.2 -0.4
v -0.3 1.2 -0.4
v -0.4 1.3 0.2
v -0.3 1.3 0.2
v -0.3 1.3 0.1
v -0.1 1.3 0.1
v 0 1.3 0.1
v -0.4 1.3 0
v -0.2 1.3 0
v 0 1.3 0
v -0.6 1.3 -0.1
v -0.5 1.3 -0.1
v -0.3 1.3 -0.1
v -0.2 1.3 -0.1
v -0.6 1.3 -0.2
v -0.5 1.3 -0.2
v -0.3 1.3 -0.2
v -0.2 1.3 -0.2
v -0.3 1.3 -0.3
v -0.2 1.3 -0.3
v 0.3 1.3 -0.3
v 0.5 1.3 -0.3
v -0.5 1.3 -0.4
v -0.3 1.3 -0.4
v 0.2 1.3 -0.4
v 0.3 1.3 -0.4
v 0.4 1.3 -0.4
v 0.5 1.3 -0.4
v -0.5 1.3 -0.5
v -0.4 1.3 -0.5
v -0.3 1.3 -0.5
v 0.2 1.3 -0.5
v 0.4 1.3 -0.5
v -0.3 1.3 -0.6
v -0.2 1.3 -0.6
v -0.1 1.3 -0.6
v -0.2 1.3 -0.7
v -0.1 1.3 -0.7
v -0.3 1.4 0.4
v -0.2 1.4 0.4
v -0.3 1.4 0.3
v -0.2 1.4 0.3
v -0.1 1.4 0.3
v 0.1 1.4 0.2
v 0.2 1.4 0.2
v -0.2 1.4 0.1
v -0.1 1.4 0.1
v 0.1 1.4 0.1
v 0.2 1.4 0.1
v 0.3 1.4 0.1
v 0.1 1.4 0
v 0.2 1.4 0
v 0.4 1.4 0
v 0.5 1.4 0
v 0.3 1.4 -0.1
v 0.4 1.4 -0.1
v 0.5 1.4 -0.1
v -0.3 1.4 -0.2
v -0.2 1.4 -0.2
v 0.3 1.4 -0.2
v 0.4 1.4 -0.2
v -0.3 1.4 -0.3
v -0.2 1.4 -0.3
v 0.1 1.4 -0.3
v 0.2 1.4 -0.3
v -0.2 1.4 -0.4
v 0.1 1.4 -0.4
v 0.2 1.4 -0.4
v 0.3 1.4 -0.4
v 0.5 1.4 -0.4
v 0.6 1.4 -0.4
v -0.5 1.4 -0.5
v -0.4 1.4 -0.5
v -0.2 1.4 -0.5
v 0.1 1.4 -0.5
v 0.4 1.4 -0.5
v 0.5 1.4 -0.5
v -0.5 1.4 -0.6
v -0.4 1.4 -0.6
v 0.1 1.4 -0.6
v 0.2 1.4 -0.6
v 0.4 1.4 -0.6
v 0.6 1.4 -0.6
v -0.3 1.5 0.3
v -0.2 1.5 0.3
v 0.4 1.5 0.2
v 0.5 1.5 0.2
v -0.3 1.5 0.1
v -0.2 1.5 0.1
v 0 1.5 0.1
v 0.1 1.5 0.1
v 0.4 1.5 0.1
v 0.5 1.5 0.1
v -0.5 1.5 0
v -0.4 1.5 0
v -0.2 1.5 0
v -0.1 1.5 0
v 0 1.5 0
v 0.1 1.5 0
v 0.2 1.5 0
v -0.5 1.5 -0.1
v -0.4 1.5 -0.1
v -0.3 1.5 -0.1
v -0.2 1.5 -0.1
v -0.1 1.5 -0.1
v 0.1 1.5 -0.1
v 0.2 1.5 -0.1
v 0.4 1.5 -0.1
v 0.5 1.5 -0.1
v -0.5 1.5 -0.2
v -0.4 1.5 -0.2
v 0.1 1.5 -0.2
v 0.2 1.5 -0.2
v 0.4 1.5 -0.2
v 0.5 1.5 -0.2
v -0.5 1.5 -0.3
v -0.3 1.5 -0.3
v -0.2 1.5 -0.3
v 0.1 1.5 -0.3
v 0.2 1.5 -0.3
v -0.2 1.5 -0.4
v 0.1 1.5 -0.4
v -0.2 1.5 -0.5
v -0.1 1.5 -0.5
v -0.2 1.5 -0.6
v -0.1 1.5 -0.6
v 0.1 1.5 -0.6
v 0.2 1.5 -0.6
v -0.1 1.5 -0.7
v 0.1 1.5 -0.7
v 0.2 1.5 -0.7
v -0.1 1.5 -0.8
v 0.1 1.5 -0.8
v 0.2 1.6 0.4
v 0.4 1.6 0.4
v 0.3 1.6 0.3
v 0.4 1.6 0.3
v 0.2 1.6 0.1
v 0.3 1.6 0.1
v -0.5 1.6 -0.1
v -0.4 1.6 -0.1
v -0.2 1.6 -0.1
v -0.1 1.6 -0.1
v -0.5 1.6 -0.2
v -0.4 1.6 -0.2
v -0.2 1.6 -0.3
v -0.1 1.6 -0.3
v 0.4 1.6 -0.4
v 0.5 1.6 -0.4
v -0.1 1.6 -0.5
v 0.1 1.6 -0.5
v 0.4 1.6 -0.5
v 0.5 1.6 -0.5
v -0.1 1.6 -0.6
v 0 1.6 -0.6
v 0 1.6 -0.7
v 0.1 1.6 -0.7
v 0.3 1.7 0.2
v 0.4 1.7 0.2
v 0.3 1.7 0.1
v 0.4 1.7 0.1
v -0.1 1.7 0
v 0 1.7 0
v -0.1 1.7 -0.3
v 0 1.7 -0.3
v -0.1 1.7 -0.6
v 0 1.7 -0.6
v -0.1 1.7 -0.7
v 0 1.7 -0.7
v 0.3 1.8 0.3
v 0.4 1.8 0.3
v 0.3 1.8 0.2
v 0.4 1.8 0.2
v 0 1.8 0
v 0.1 1.8 0
v 0 1.8 -0.1
v 0.1 1.8 -0.1
v 0.2 1.8 -0.1
v 0.1 1.8 -0.2
v 0.2 1.8 -0.2
v 0 1.9 -0.1
v 0.1 1.9 -0.1
v 0 1.9 -0.3
v 0.1 1.9 -0.3

# faces
f 3/1/1 2/1/1 1/1/1
f 4/1/1 2/1/1 3/1/1
f 5/3/1 4/3/1 3/3/1
f 6/3/1 4/3/1 5/3/1
f 9/3/1 8/3/1 7/3/1
f 10/3/1 8/3/1 9/3/1
f 12/3/1 11/3/1 10/3/1
f 13/3/1 11/3/1 12/3/1
f 16/3/1 15/3/1 14/3/1
f 17/3/1 15/3/1 16/3/1
f 20/4/1 19/4/1 18/4/1
f 21/4/1 19/4/1 20/4/1
f 22/4/1 20/4/1 18/4/1
f 23/4/1 20/4/1 22/4/1
f 26/4/1 25/4/1 24/4/1
f 27/4/1 25/4/1 26/4/1
f 31/4/1 29/4/1 28/4/1
f 32/4/1 29/4/1 31/4/1
f 32/4/1 31/4/1 30/4/1
f 33/4/1 29/4/1 32/4/1
f 37/4/1 35/4/1 34/4/1
f 38/4/1 35/4/1 37/4/1
f 39/4/1 35/4/1 38/4/1
f 41/4/1 32/4/1 30/4/1
f 42/4/1 37/4/1 36/4/1
f 43/4/1 40/4/1 39/4/1
f 43/4/1 39/4/1 38/4/1
f 44/4/1 40/4/1 43/4/1
f 45/4/1 40/4/1 44/4/1
f 46/4/1 40/4/1 45/4/1
f 47/4/1 42/4/1 41/4/1
f 47/4/1 41/4/1 30/4/1
f 48/4/1 42/4/1 47/4/1
f 49/4/1 37/4/1 42/4/1
f 49/4/1 42/4/1 48/4/1
f 50/4/1 37/4/1 49/4/1
f 51/4/1 49/4/1 48/4/1
f 52/4/1 49/4/1 51/4/1
f 59/4/1 54/4/1 53/4/1
f 59/4/1 55/4/1 54/4/1
f 59/4/1 56/4/1 55/4/1
f 60/4/1 56/4/1 59/4/1
f 61/4/1 56/4/1 60/4/1
f 62/4/1 58/4/1 57/4/1
f 62/4/1 59/4/1 58/4/1
f 62/4/1 60/4/1 59/4/1
f 63/4/1 60/4/1 62/4/1
f 64/7/1 63/7/1 62/7/1
f 65/7/1 63/7/1 64/7/1
f 66/7/1 63/7/1 65/7/1
f 67/7/1 63/7/1 66/7/1
f 68/4/1 65/4/1 64/4/1
f 69/4/1 65/4/1 68/4/1
f 70/4/1 67/4/1 66/4/1
f 74/4/1 70/4/1 66/4/1
f 74/4/1 71/4/1 70/4/1
f 75/4/1 71/4/1 74/4/1
f 76/4/1 73/4/1 72/4/1
f 77/4/1 73/4/1 76/4/1
f 80/9/1 79/9/1 78/9/1
f 81/9/1 79/9/1 80/9/1
f 82/9/1 79/9/1 81/9/1
f 84/1/1 82/1/1 81/1/1
f 85/1/1 82/1/1 84/1/1
f 87/3/1 85/3/1 84/3/1
f 87/3/1 86/3/1 85/3/1
f 87/3/1 84/3/1 83/3/1
f 88/3/1 86/3/1 87/3/1
f 89/6/1 88/6/1 87/6/1
f 90/6/1 88/6/1 89/6/1
f 91/3/1 90/3/1 89/3/1
f 92/3/1 90/3/1 91/3/1
f 93/3/1 91/3/1 89/3/1
f 94/3/1 91/3/1 93/3/1
f 96/1/1 94/1/1 93/1/1
f 97/1/1 94/1/1 96/1/1
f 100/4/1 96/4/1 95/4/1
f 101/4/1 96/4/1 100/4/1
f 102/4/1 99/4/1 98/4/1
f 103/4/1 99/4/1 102/4/1
f 104/7/1 103/7/1 102/7/1
f 105/7/1 103/7/1 104/7/1
f 110/4/1 107/4/1 106/4/1
f 111/4/1 107/4/1 110/4/1
f 112/4/1 109/4/1 108/4/1
f 113/4/1 109/4/1 112/4/1
f 120/4/1 116/4/1 115/4/1
f 121/4/1 116/4/1 120/4/1
f 123/4/1 118/4/1 117/4/1
f 124/4/1 118/4/1 123/4/1
f 125/4/1 114/4/1 113/4/1
f 126/4/1 114/4/1 125/4/1
f 127/4/1 122/4/1 121/4/1
f 127/4/1 120/4/1 119/4/1
f 127/4/1 121/4/1 120/4/1
f 128/4/1 122/4/1 127/4/1
f 129/4/1 122/4/1 128/4/1
f 130/4/1 122/4/1 129/4/1
f 135/4/1 132/4/1 131/4/1
f 136/4/1 132/4/1 135/4/1
f 137/7/1 134/7/1 133/7/1
f 138/7/1 134/7/1 137/7/1
f 140/7/1 136/7/1 135/7/1
f 141/7/1 136/7/1 140/7/1
f 143/4/1 138/4/1 137/4/1
f 144/4/1 138/4/1 143/4/1
f 145/4/1 140/4/1 139/4/1
f 145/4/1 141/4/1 140/4/1
f 146/4/1 141/4/1 145/4/1
f 147/4/1 143/4/1 142/4/1
f 148/4/1 143/4/1 147/4/1
f 153/4/1 150/4/1 149/4/1
f 154/4/1 150/4/1 153/4/1
f 157/4/1 152/4/1 151/4/1
f 158/4/1 152/4/1 157/4/1
f 159/4/1 155/4/1 154/4/1
f 159/4/1 154/4/1 153/4/1
f 160/4/1 157/4/1 156/4/1
f 161/4/1 157/4/1 160/4/1
f 162/4/1 157/4/1 161/4/1
f 163/4/1 159/4/1 153/4/1
f 163/4/1 160/4/1 159/4/1
f 163/4/1 161/4/1 160/4/1
f 164/4/1 161/4/1 163/4/1
f 165/4/1 161/4/1 164/4/1
f 166/4/1 161/4/1 165/4/1
f 167/4/1 157/4/1 162/4/1
f 168/4/1 157/4/1 167/4/1
f 169/4/1 165/4/1 164/4/1
f 170/4/1 165/4/1 169/4/1
f 173/4/1 172/4/1 171/4/1
f 174/4/1 172/4/1 173/4/1
f 178/4/1 175/4/1 174/4/1
f 179/4/1 175/4/1 178/4/1
f 180/4/1 177/4/1 176/4/1
f 181/4/1 177/4/1 180/4/1
f 184/4/1 183/4/1 182/4/1
f 185/4/1 183/4/1 184/4/1
f 188/4/1 187/4/1 186/4/1
f 193/4/1 188/4/1 186/4/1
f 193/4/1 189/4/1 188/4/1
f 194/4/1 189/4/1 193/4/1
f 195/4/1 189/4/1 194/4/1
f 196/4/1 191/4/1 190/4/1
f 198/4/1 193/4/1 192/4/1
f 198/4/1 194/4/1 193/4/1
f 199/4/1 194/4/1 198/4/1
f 200/4/1 197/4/1 196/4/1
f 200/4/1 196/4/1 190/4/1
f 201/4/1 197/4/1 200/4/1
f 202/4/1 194/4/1 199/4/1
f 203/4/1 194/4/1 202/4/1
f 206/4/1 205/4/1 204/4/1
f 207/4/1 205/4/1 206/4/1
f 210/4/1 209/4/1 208/4/1
f 211/4/1 209/4/1 210/4/1
f 212/4/1 209/4/1 211/4/1
f 213/4/1 209/4/1 212/4/1
f 216/7/1 215/7/1 214/7/1
f 217/7/1 215/7/1 216/7/1
f 220/4/1 219/4/1 218/4/1
f 221/4/1 219/4/1 220/4/1
f 224/9/1 223/9/1 222/9/1
f 225/9/1 223/9/1 224/9/1
f 226/9/1 223/9/1 225/9/1
f 227/1/1 226/1/1 225/1/1
f 228/1/1 226/1/1 227/1/1
f 233/7/1 230/7/1 229/7/1
f 234/7/1 230/7/1 233/7/1
f 235/4/1 232/4/1 231/4/1
f 236/4/1 232/4/1 235/4/1
f 239/4/1 238/4/1 237/4/1
f 242/4/1 239/4/1 237/4/1
f 242/4/1 240/4/1 239/4/1
f 243/4/1 242/4/1 241/4/1
f 244/4/1 240/4/1 242/4/1
f 244/4/1 242/4/1 243/4/1
f 247/4/1 246/4/1 245/4/1
f 248/4/1 246/4/1 247/4/1
f 251/4/1 250/4/1 249/4/1
f 252/4/1 250/4/1 251/4/1
f 253/4/1 251/4/1 249/4/1
f 254/4/1 251/4/1 253/4/1
f 257/3/1 256/3/1 255/3/1
f 258/3/1 256/3/1 257/3/1
f 264/4/1 260/4/1 259/4/1
f 265/4/1 262/4/1 261/4/1
f 266/4/1 262/4/1 265/4/1
f 268/4/1 264/4/1 263/4/1
f 268/4/1 260/4/1 264/4/1
f 269/4/1 260/4/1 268/4/1
f 270/4/1 267/4/1 266/4/1
f 271/4/1 267/4/1 270/4/1
f 272/4/1 268/4/1 263/4/1
f 273/4/1 268/4/1 272/4/1
f 276/3/1 275/3/1 274/3/1
f 277/3/1 275/3/1 276/3/1
f 280/1/1 279/1/1 278/1/1
f 281/1/1 279/1/1 280/1/1
f 282/1/2 283/1/2 284/1/2
f 284/1/2 283/1/2 285/1/2
f 286/3/2 287/3/2 288/3/2
f 288/3/2 287/3/2 289/3/2
f 290/3/2 291/3/2 292/3/2
f 292/3/2 291/3/2 293/3/2
f 294/4/2 295/4/2 298/4/2
f 296/4/2 297/4/2 299/4/2
f 299/4/2 297/4/2 300/4/2
f 300/4/2 297/4/2 301/4/2
f 298/4/2 295/4/2 302/4/2
f 302/4/2 295/4/2 303/4/2
f 303/4/2 304/4/2 305/4/2
f 305/4/2 304/4/2 306/4/2
f 307/8/2 308/8/2 310/8/2
f 308/4/2 309/4/2 311/4/2
f 310/8/2 308/8/2 311/8/2
f 311/4/2 309/4/2 312/4/2
f 313/4/2 314/4/2 315/4/2
f 313/4/2 315/4/2 317/4/2
f 315/4/2 316/4/2 317/4/2
f 317/4/2 316/4/2 318/4/2
f 319/9/2 320/9/2 321/9/2
f 321/9/2 320/9/2 322/9/2
f 322/9/2 320/9/2 323/9/2
f 322/1/2 323/1/2 324/1/2
f 324/1/2 323/1/2 325/1/2
f 326/4/2 327/4/2 328/4/2
f 328/4/2 327/4/2 329/4/2
f 330/4/2 331/4/2 332/4/2
f 332/4/2 331/4/2 333/4/2
f 333/4/2 334/4/2 335/4/2
f 335/4/2 334/4/2 336/4/2
f 337/4/2 338/4/2 340/4/2
f 340/4/2 338/4/2 341/4/2
f 339/4/2 340/4/2 341/4/2
f 339/4/2 341/4/2 342/4/2
f 342/4/2 341/4/2 343/4/2
f 344/4/2 345/4/2 346/4/2
f 346/4/2 345/4/2 347/4/2
f 348/7/2 349/7/2 350/7/2
f 350/7/2 349/7/2 351/7/2
f 352/4/2 353/4/2 354/4/2
f 354/4/2 353/4/2 355/4/2
f 356/4/2 357/4/2 358/4/2
f 358/4/2 357/4/2 359/4/2
f 359/4/2 357/4/2 360/4/2
f 360/4/2 361/4/2 364/4/2
f 359/4/2 360/4/2 364/4/2
f 364/4/2 361/4/2 365/4/2
f 365/4/2 361/4/2 366/4/2
f 362/4/2 363/4/2 367/4/2
f 367/4/2 363/4/2 368/4/2
f 369/4/2 370/4/2 371/4/2
f 369/4/2 371/4/2 373/4/2
f 371/4/2 372/4/2 373/4/2
f 373/4/2 372/4/2 374/4/2
f 375/4/2 376/4/2 383/4/2
f 383/4/2 376/4/2 384/4/2
f 377/4/2 378/4/2 387/4/2
f 387/4/2 378/4/2 388/4/2
f 379/4/2 380/4/2 389/4/2
f 381/4/2 382/4/2 390/4/2
f 390/4/2 382/4/2 391/4/2
f 379/4/2 389/4/2 392/4/2
f 389/4/2 390/4/2 392/4/2
f 392/4/2 390/4/2 393/4/2
f 384/4/2 385/4/2 394/4/2
f 394/4/2 385/4/2 395/4/2
f 386/4/2 387/4/2 396/4/2
f 395/4/2 396/4/2 397/4/2
f 396/4/2 387/4/2 398/4/2
f 397/4/2 396/4/2 398/4/2
f 399/7/2 400/7/2 403/7/2
f 403/7/2 400/7/2 404/7/2
f 401/7/2 402/7/2 405/7/2
f 405/7/2 402/7/2 406/7/2
f 407/4/2 408/4/2 409/4/2
f 407/4/2 409/4/2 412/4/2
f 409/4/2 410/4/2 412/4/2
f 411/4/2 412/4/2 415/4/2
f 412/4/2 410/4/2 416/4/2
f 415/4/2 412/4/2 416/4/2
f 413/4/2 414/4/2 417/4/2
f 417/4/2 414/4/2 418/4/2
f 418/4/2 414/4/2 419/4/2
f 419/4/2 414/4/2 420/4/2
f 416/4/2 410/4/2 421/4/2
f 421/4/2 410/4/2 422/4/2
f 418/4/2 419/4/2 423/4/2
f 423/4/2 419/4/2 424/4/2
f 425/9/2 426/9/2 427/9/2
f 427/9/2 426/9/2 428/9/2
f 428/9/2 426/9/2 429/9/2
f 428/1/2 429/1/2 431/1/2
f 431/1/2 429/1/2 432/1/2
f 431/3/2 432/3/2 434/3/2
f 432/3/2 433/3/2 434/3/2
f 430/3/2 431/3/2 434/3/2
f 434/3/2 433/3/2 435/3/2
f 434/6/2 435/6/2 436/6/2
f 436/6/2 435/6/2 437/6/2
f 436/3/2 437/3/2 438/3/2
f 438/3/2 437/3/2 439/3/2
f 436/3/2 438/3/2 440/3/2
f 440/3/2 438/3/2 441/3/2
f 440/1/2 441/1/2 443/1/2
f 443/1/2 441/1/2 444/1/2
f 442/4/2 443/4/2 447/4/2
f 447/4/2 443/4/2 448/4/2
f 445/7/2 446/7/2 450/7/2
f 450/7/2 446/7/2 451/7/2
f 449/7/2 450/7/2 454/7/2
f 454/7/2 450/7/2 455/7/2
f 452/4/2 453/4/2 457/4/2
f 457/4/2 453/4/2 458/4/2
f 454/4/2 455/4/2 459/4/2
f 459/4/2 455/4/2 460/4/2
f 456/4/2 457/4/2 461/4/2
f 461/4/2 457/4/2 462/4/2
f 462/4/2 463/4/2 466/4/2
f 464/4/2 465/4/2 468/4/2
f 466/4/2 467/4/2 470/4/2
f 462/4/2 466/4/2 470/4/2
f 470/4/2 467/4/2 471/4/2
f 468/4/2 469/4/2 472/4/2
f 464/4/2 468/4/2 472/4/2
f 472/4/2 469/4/2 473/4/2
f 474/4/2 475/4/2 480/4/2
f 480/4/2 475/4/2 481/4/2
f 478/4/2 479/4/2 482/4/2
f 476/4/2 477/4/2 482/4/2
f 477/4/2 478/4/2 482/4/2
f 482/4/2 479/4/2 483/4/2
f 482/7/2 483/7/2 484/7/2
f 484/7/2 483/7/2 485/7/2
f 485/7/2 483/7/2 486/7/2
f 485/4/2 486/4/2 489/4/2
f 487/4/2 488/4/2 492/4/2
f 492/4/2 488/4/2 493/4/2
f 485/4/2 489/4/2 495/4/2
f 489/4/2 490/4/2 495/4/2
f 495/4/2 490/4/2 496/4/2
f 496/4/2 490/4/2 497/4/2
f 493/4/2 494/4/2 498/4/2
f 498/4/2 494/4/2 499/4/2
f 491/4/2 492/4/2 501/4/2
f 501/4/2 492/4/2 502/4/2
f 502/4/2 492/4/2 503/4/2
f 500/4/2 501/4/2 504/4/2
f 501/4/2 502/4/2 504/4/2
f 500/4/2 504/4/2 506/4/2
f 504/4/2 505/4/2 506/4/2
f 506/4/2 505/4/2 507/4/2
f 507/4/2 505/4/2 508/4/2
f 508/4/2 505/4/2 509/4/2
f 507/4/2 508/4/2 510/4/2
f 510/4/2 508/4/2 511/4/2
f 512/4/2 513/4/2 514/4/2
f 514/4/2 513/4/2 515/4/2
f 515/4/2 516/4/2 517/4/2
f 517/4/2 516/4/2 518/4/2
f 519/4/2 520/4/2 521/4/2
f 521/4/2 520/4/2 522/4/2
f 523/4/2 524/4/2 525/4/2
f 525/4/2 524/4/2 526/4/2
f 522/4/2 520/4/2 530/4/2
f 523/4/2 525/4/2 531/4/2
f 531/4/2 525/4/2 532/4/2
f 529/4/2 530/4/2 533/4/2
f 530/4/2 520/4/2 534/4/2
f 533/4/2 530/4/2 534/4/2
f 527/4/2 528/4/2 537/4/2
f 537/4/2 528/4/2 538/4/2
f 534/4/2 520/4/2 539/4/2
f 539/4/2 520/4/2 540/4/2
f 535/4/2 536/4/2 541/4/2
f 541/4/2 536/4/2 542/4/2
f 543/4/2 544/4/2 545/4/2
f 545/4/2 544/4/2 546/4/2
f 547/4/2 548/4/2 549/4/2
f 549/4/2 548/4/2 550/4/2
f 551/3/2 552/3/2 553/3/2
f 553/3/2 552/3/2 554/3/2
f 555/3/2 556/3/2 557/3/2
f 557/3/2 556/3/2 558/3/2
f 558/3/2 559/3/2 560/3/2
f 560/3/2 559/3/2 561/3/2
f 562/1/2 563/1/2 564/1/2
f 564/1/2 563/1/2 565/1/2
f 564/3/2 565/3/2 566/3/2
f 566/3/2 565/3/2 567/3/2
f 570/4/3 569/4/3 568/4/3
f 571/4/3 569/4/3 570/4/3
f 575/4/3 573/4/3 572/4/3
f 576/4/3 575/4/3 574/4/3
f 577/4/3 573/4/3 575/4/3
f 577/4/3 575/4/3 576/4/3
f 582/4/3 579/4/3 578/4/3
f 583/4/3 581/4/3 580/4/3
f 584/4/3 581/4/3 583/4/3
f 585/4/3 582/4/3 578/4/3
f 585/4/3 583/4/3 582/4/3
f 586/4/3 583/4/3 585/4/3
f 589/4/3 588/4/3 587/4/3
f 590/4/3 588/4/3 589/4/3
f 593/4/3 589/4/3 587/4/3
f 594/4/3 589/4/3 593/4/3
f 595/4/3 592/4/3 591/4/3
f 596/4/3 592/4/3 595/4/3
f 599/4/3 598/4/3 597/4/3
f 600/4/3 598/4/3 599/4/3
f 602/4/3 599/4/3 597/4/3
f 603/4/3 602/4/3 601/4/3
f 604/4/3 599/4/3 602/4/3
f 604/4/3 602/4/3 603/4/3
f 607/4/3 606/4/3 605/4/3
f 608/4/3 606/4/3 607/4/3
f 609/4/3 607/4/3 605/4/3
f 610/4/3 607/4/3 609/4/3
f 613/4/3 612/4/3 611/4/3
f 614/4/3 612/4/3 613/4/3
f 619/4/3 616/4/3 615/4/3
f 620/4/3 616/4/3 619/4/3
f 622/4/3 618/4/3 617/4/3
f 623/4/3 618/4/3 622/4/3
f 625/7/3 621/7/3 620/7/3
f 626/4/3 622/4/3 621/4/3
f 628/4/3 625/4/3 624/4/3
f 628/7/3 621/7/3 625/7/3
f 629/4/3 627/4/3 626/4/3
f 629/7/3 621/7/3 628/7/3
f 629/4/3 626/4/3 621/4/3
f 630/4/3 627/4/3 629/4/3
f 632/4/3 628/4/3 624/4/3
f 633/4/3 628/4/3 632/4/3
f 634/4/3 631/4/3 630/4/3
f 634/4/3 630/4/3 629/4/3
f 635/4/3 631/4/3 634/4/3
f 636/4/3 631/4/3 635/4/3
f 637/4/3 631/4/3 636/4/3
f 639/7/3 634/7/3 633/7/3
f 640/4/3 635/4/3 634/4/3
f 640/7/3 634/7/3 639/7/3
f 641/4/3 639/4/3 638/4/3
f 642/4/3 639/4/3 641/4/3
f 643/4/3 635/4/3 640/4/3
f 644/4/3 635/4/3 643/4/3
f 646/4/3 645/4/3 644/4/3
f 647/4/3 645/4/3 646/4/3
f 650/3/3 649/3/3 648/3/3
f 651/3/3 649/3/3 650/3/3
f 654/3/3 649/3/3 651/3/3
f 655/3/3 649/3/3 654/3/3
f 659/4/3 653/4/3 652/4/3
f 660/4/3 653/4/3 659/4/3
f 661/4/3 653/4/3 660/4/3
f 662/4/3 653/4/3 661/4/3
f 669/4/3 657/4/3 656/4/3
f 670/7/3 658/7/3 657/7/3
f 670/4/3 657/4/3 669/4/3
f 671/4/3 659/4/3 658/4/3
f 671/4/3 660/4/3 659/4/3
f 672/4/3 660/4/3 671/4/3
f 673/9/3 664/9/3 663/9/3
f 674/9/3 664/9/3 673/9/3
f 675/3/3 668/3/3 667/3/3
f 676/1/3 669/1/3 668/1/3
f 676/3/3 668/3/3 675/3/3
f 677/1/3 669/1/3 676/1/3
f 678/7/3 658/7/3 670/7/3
f 679/4/3 671/4/3 658/4/3
f 679/7/3 658/7/3 678/7/3
f 680/4/3 671/4/3 679/4/3
f 683/2/3 677/2/3 676/2/3
f 683/1/3 676/1/3 675/1/3
f 684/1/3 678/1/3 677/1/3
f 684/2/3 677/2/3 683/2/3
f 685/1/3 678/1/3 684/1/3
f 686/4/3 682/4/3 681/4/3
f 690/4/3 686/4/3 681/4/3
f 690/4/3 687/4/3 686/4/3
f 691/4/3 687/4/3 690/4/3
f 692/4/3 687/4/3 691/4/3
f 694/1/3 684/1/3 683/1/3
f 694/1/3 683/1/3 675/1/3
f 695/1/3 684/1/3 694/1/3
f 696/7/3 689/7/3 688/7/3
f 697/7/3 689/7/3 696/7/3
f 699/4/3 693/4/3 692/4/3
f 699/4/3 692/4/3 691/4/3
f 700/4/3 693/4/3 699/4/3
f 703/3/3 675/3/3 667/3/3
f 703/1/3 694/1/3 675/1/3
f 704/2/3 695/2/3 694/2/3
f 704/1/3 694/1/3 703/1/3
f 705/1/3 696/1/3 695/1/3
f 705/2/3 695/2/3 704/2/3
f 706/1/3 696/1/3 705/1/3
f 708/4/3 699/4/3 698/4/3
f 709/4/3 699/4/3 708/4/3
f 710/9/3 702/9/3 701/9/3
f 711/9/3 702/9/3 710/9/3
f 712/3/3 666/3/3 665/3/3
f 713/6/3 667/6/3 666/6/3
f 713/3/3 666/3/3 712/3/3
f 714/3/3 703/3/3 667/3/3
f 714/6/3 667/6/3 713/6/3
f 714/3/3 704/3/3 703/3/3
f 715/1/3 705/1/3 704/1/3
f 715/3/3 704/3/3 714/3/3
f 716/1/3 705/1/3 715/1/3
f 717/7/3 707/7/3 706/7/3
f 718/7/3 707/7/3 717/7/3
f 724/4/3 717/4/3 716/4/3
f 725/7/3 718/7/3 717/7/3
f 725/4/3 717/4/3 724/4/3
f 726/4/3 719/4/3 718/4/3
f 726/7/3 718/7/3 725/7/3
f 727/4/3 719/4/3 726/4/3
f 728/4/3 721/4/3 720/4/3
f 729/4/3 721/4/3 728/4/3
f 732/4/3 727/4/3 726/4/3
f 732/4/3 728/4/3 727/4/3
f 733/4/3 728/4/3 732/4/3
f 734/4/3 731/4/3 730/4/3
f 735/4/3 731/4/3 734/4/3
f 737/3/3 723/3/3 722/3/3
f 738/3/3 737/3/3 736/3/3
f 739/3/3 723/3/3 737/3/3
f 739/3/3 737/3/3 738/3/3
f 743/1/3 741/1/3 740/1/3
f 744/3/3 742/3/3 741/3/3
f 744/1/3 741/1/3 743/1/3
f 745/3/3 742/3/3 744/3/3
f 746/3/3 742/3/3 745/3/3
f 752/4/3 749/4/3 748/4/3
f 753/4/3 749/4/3 752/4/3
f 757/3/3 747/3/3 746/3/3
f 758/3/3 747/3/3 757/3/3
f 759/4/3 751/4/3 750/4/3
f 760/4/3 751/4/3 759/4/3
f 762/4/3 755/4/3 754/4/3
f 763/4/3 755/4/3 762/4/3
f 766/3/3 758/3/3 757/3/3
f 766/3/3 757/3/3 756/3/3
f 767/3/3 758/3/3 766/3/3
f 768/3/3 758/3/3 767/3/3
f 769/4/3 762/4/3 761/4/3
f 770/4/3 762/4/3 769/4/3
f 771/1/3 765/1/3 764/1/3
f 772/1/3 765/1/3 771/1/3
f 773/4/3 769/4/3 761/4/3
f 774/4/3 769/4/3 773/4/3
f 777/4/3 776/4/3 775/4/3
f 778/4/3 776/4/3 777/4/3
f 782/4/3 780/4/3 779/4/3
f 783/4/3 780/4/3 782/4/3
f 786/4/3 782/4/3 781/4/3
f 787/4/3 782/4/3 786/4/3
f 788/1/3 785/1/3 784/1/3
f 789/1/3 785/1/3 788/1/3
f 795/3/3 791/3/3 790/3/3
f 795/3/3 792/3/3 791/3/3
f 796/3/3 792/3/3 795/3/3
f 797/3/3 792/3/3 796/3/3
f 799/4/3 794/4/3 793/4/3
f 800/4/3 794/4/3 799/4/3
f 801/4/3 794/4/3 800/4/3
f 803/4/3 799/4/3 798/4/3
f 803/4/3 800/4/3 799/4/3
f 804/4/3 800/4/3 803/4/3
f 805/4/3 802/4/3 801/4/3
f 806/4/3 802/4/3 805/4/3
f 808/3/3 797/3/3 796/3/3
f 809/3/3 797/3/3 808/3/3
f 811/3/3 808/3/3 807/3/3
f 812/1/3 811/1/3 810/1/3
f 813/3/3 808/3/3 811/3/3
f 813/1/3 811/1/3 812/1/3
f 814/3/3 808/3/3 813/3/3
f 817/4/3 816/4/3 815/4/3
f 818/4/3 816/4/3 817/4/3
f 823/4/3 820/4/3 819/4/3
f 825/4/3 822/4/3 821/4/3
f 826/4/3 822/4/3 825/4/3
f 827/4/3 820/4/3 823/4/3
f 828/4/3 820/4/3 827/4/3
f 829/4/3 825/4/3 824/4/3
f 830/4/3 825/4/3 829/4/3
f 835/4/3 832/4/3 831/4/3
f 836/4/3 832/4/3 835/4/3
f 837/8/3 836/8/3 835/8/3
f 838/8/3 836/8/3 837/8/3
f 839/4/3 834/4/3 833/4/3
f 840/4/3 834/4/3 839/4/3
f 844/4/3 842/4/3 841/4/3
f 845/4/3 842/4/3 844/4/3
f 846/4/3 842/4/3 845/4/3
f 847/4/3 844/4/3 843/4/3
f 847/4/3 845/4/3 844/4/3
f 848/4/3 845/4/3 847/4/3
f 851/4/3 850/4/3 849/4/3
f 852/4/3 850/4/3 851/4/3
f 855/4/3 854/4/3 853/4/3
f 857/4/3 855/4/3 853/4/3
f 857/4/3 856/4/3 855/4/3
f 858/4/3 856/4/3 857/4/3
f 861/4/3 860/4/3 859/4/3
f 862/4/3 860/4/3 861/4/3
f 865/4/3 864/4/3 863/4/3
f 866/4/3 864/4/3 865/4/3
f 867/4/4 868/4/4 869/4/4
f 869/4/4 868/4/4 870/4/4
f 871/4/4 872/4/4 873/4/4
f 873/4/4 872/4/4 874/4/4
f 871/4/4 873/4/4 875/4/4
f 875/4/4 873/4/4 876/4/4
f 877/4/4 878/4/4 880/4/4
f 880/4/4 878/4/4 881/4/4
f 879/4/4 880/4/4 883/4/4
f 881/4/4 882/4/4 883/4/4
f 880/4/4 881/4/4 883/4/4
f 883/4/4 882/4/4 884/4/4
f 884/4/4 882/4/4 885/4/4
f 885/4/4 882/4/4 886/4/4
f 884/4/4 885/4/4 887/4/4
f 887/4/4 885/4/4 888/4/4
f 889/4/4 890/4/4 891/4/4
f 891/4/4 890/4/4 892/4/4
f 893/1/4 894/1/4 896/1/4
f 894/3/4 895/3/4 897/3/4
f 896/1/4 894/1/4 897/1/4
f 897/3/4 895/3/4 898/3/4
f 897/3/4 898/3/4 900/3/4
f 898/3/4 899/3/4 900/3/4
f 900/3/4 899/3/4 901/3/4
f 901/3/4 899/3/4 902/3/4
f 903/4/4 904/4/4 907/4/4
f 907/4/4 904/4/4 908/4/4
f 902/3/4 899/3/4 911/3/4
f 911/3/4 899/3/4 912/3/4
f 905/4/4 906/4/4 913/4/4
f 913/4/4 906/4/4 914/4/4
f 909/4/4 910/4/4 915/4/4
f 915/4/4 910/4/4 916/4/4
f 917/9/4 918/9/4 920/9/4
f 918/1/4 919/1/4 921/1/4
f 920/9/4 918/9/4 921/9/4
f 921/1/4 919/1/4 922/1/4
f 923/4/4 924/4/4 928/4/4
f 928/4/4 924/4/4 929/4/4
f 925/9/4 926/9/4 930/9/4
f 926/1/4 927/1/4 931/1/4
f 930/9/4 926/9/4 931/9/4
f 931/1/4 927/1/4 932/1/4
f 933/4/4 934/4/4 936/4/4
f 936/4/4 934/4/4 937/4/4
f 935/4/4 936/4/4 941/4/4
f 936/4/4 937/4/4 941/4/4
f 937/4/4 938/4/4 941/4/4
f 941/4/4 938/4/4 942/4/4
f 939/3/4 940/3/4 945/3/4
f 943/3/4 944/3/4 946/3/4
f 944/3/4 945/3/4 946/3/4
f 945/3/4 940/3/4 946/3/4
f 946/3/4 940/3/4 947/3/4
f 943/3/4 946/3/4 949/3/4
f 948/1/4 949/1/4 950/1/4
f 949/3/4 946/3/4 951/3/4
f 950/1/4 949/1/4 951/1/4
f 951/3/4 946/3/4 952/3/4
f 955/4/4 956/4/4 957/4/4
f 957/4/4 956/4/4 958/4/4
f 953/3/4 954/3/4 960/3/4
f 953/3/4 960/3/4 968/3/4
f 961/4/4 962/4/4 969/4/4
f 962/7/4 963/7/4 970/7/4
f 969/4/4 962/4/4 970/4/4
f 963/4/4 964/4/4 971/4/4
f 970/7/4 963/7/4 971/7/4
f 958/4/4 959/4/4 972/4/4
f 972/4/4 959/4/4 973/4/4
f 973/4/4 959/4/4 974/4/4
f 974/4/4 959/4/4 975/4/4
f 967/3/4 968/3/4 976/3/4
f 968/3/4 960/3/4 976/3/4
f 976/3/4 960/3/4 977/3/4
f 971/4/4 964/4/4 978/4/4
f 978/4/4 964/4/4 979/4/4
f 973/4/4 974/4/4 980/4/4
f 980/4/4 974/4/4 981/4/4
f 976/4/4 977/4/4 984/4/4
f 967/3/4 976/3/4 984/3/4
f 984/4/4 977/4/4 985/4/4
f 982/4/4 983/4/4 986/4/4
f 986/4/4 987/4/4 988/4/4
f 967/3/4 984/3/4 990/3/4
f 982/4/4 986/4/4 993/4/4
f 988/4/4 989/4/4 993/4/4
f 986/4/4 988/4/4 993/4/4
f 993/4/4 989/4/4 994/4/4
f 990/4/4 991/4/4 995/4/4
f 967/3/4 990/3/4 995/3/4
f 995/4/4 991/4/4 996/4/4
f 992/4/4 993/4/4 997/4/4
f 997/4/4 993/4/4 998/4/4
f 965/3/4 966/3/4 999/3/4
f 966/6/4 967/6/4 1000/6/4
f 999/3/4 966/3/4 1000/3/4
f 995/3/4 996/3/4 1001/3/4
f 1000/6/4 967/6/4 1001/6/4
f 967/3/4 995/3/4 1001/3/4
f 1001/3/4 996/3/4 1002/3/4
f 1002/3/4 996/3/4 1003/3/4
f 1004/7/4 1005/7/4 1007/7/4
f 1005/4/4 1006/4/4 1008/4/4
f 1007/7/4 1005/7/4 1008/7/4
f 1008/4/4 1006/4/4 1009/4/4
f 1002/3/4 1003/3/4 1010/3/4
f 1002/3/4 1010/3/4 1011/3/4
f 1011/3/4 1010/3/4 1012/3/4
f 1013/4/4 1014/4/4 1018/4/4
f 1018/4/4 1014/4/4 1019/4/4
f 1015/4/4 1016/4/4 1020/4/4
f 1016/7/4 1017/7/4 1021/7/4
f 1020/4/4 1016/4/4 1021/4/4
f 1021/7/4 1017/7/4 1022/7/4
f 1023/4/4 1024/4/4 1029/4/4
f 1029/4/4 1024/4/4 1030/4/4
f 1025/4/4 1026/4/4 1031/4/4
f 1031/4/4 1026/4/4 1032/4/4
f 1027/4/4 1028/4/4 1034/4/4
f 1033/7/4 1034/7/4 1038/7/4
f 1034/4/4 1028/4/4 1039/4/4
f 1038/7/4 1034/7/4 1039/7/4
f 1039/4/4 1028/4/4 1040/4/4
f 1035/4/4 1036/4/4 1041/4/4
f 1041/4/4 1036/4/4 1042/4/4
f 1037/4/4 1038/4/4 1044/4/4
f 1040/4/4 1028/4/4 1045/4/4
f 1045/4/4 1028/4/4 1046/4/4
f 1043/4/4 1044/4/4 1047/4/4
f 1044/4/4 1038/4/4 1047/4/4
f 1047/4/4 1038/4/4 1048/4/4
f 1043/4/4 1047/4/4 1049/4/4
f 1049/4/4 1047/4/4 1050/4/4
f 1051/4/4 1052/4/4 1055/4/4
f 1053/4/4 1054/4/4 1057/4/4
f 1055/4/4 1056/4/4 1059/4/4
f 1051/4/4 1055/4/4 1059/4/4
f 1059/4/4 1056/4/4 1060/4/4
f 1057/4/4 1054/4/4 1061/4/4
f 1058/4/4 1059/4/4 1064/4/4
f 1057/4/4 1061/4/4 1066/4/4
f 1061/4/4 1062/4/4 1066/4/4
f 1066/4/4 1062/4/4 1067/4/4
f 1063/4/4 1064/4/4 1068/4/4
f 1064/4/4 1059/4/4 1068/4/4
f 1068/4/4 1059/4/4 1069/4/4
f 1065/4/4 1066/4/4 1070/4/4
f 1070/4/4 1066/4/4 1071/4/4
f 1067/4/4 1062/4/4 1072/4/4
f 1062/7/4 1063/7/4 1073/7/4
f 1063/4/4 1068/4/4 1073/4/4
f 1073/4/4 1068/4/4 1074/4/4
f 1072/4/4 1062/4/4 1076/4/4
f 1062/7/4 1073/7/4 1077/7/4
f 1076/4/4 1062/4/4 1077/4/4
f 1077/7/4 1073/7/4 1078/7/4
f 1075/7/4 1076/7/4 1081/7/4
f 1076/7/4 1077/7/4 1081/7/4
f 1081/7/4 1077/7/4 1082/7/4
f 1082/7/4 1077/7/4 1083/7/4
f 1081/4/4 1082/4/4 1084/4/4
f 1084/4/4 1082/4/4 1085/4/4
f 1079/4/4 1080/4/4 1086/4/4
f 1086/4/4 1080/4/4 1087/4/4
f 1079/4/4 1086/4/4 1090/4/4
f 1090/4/4 1086/4/4 1091/4/4
f 1088/4/4 1089/4/4 1092/4/4
f 1092/4/4 1089/4/4 1093/4/4
f 1096/4/4 1097/4/4 1098/4/4
f 1098/4/4 1097/4/4 1099/4/4
f 1094/4/4 1095/4/4 1100/4/4
f 1100/4/4 1095/4/4 1101/4/4
f 1102/4/4 1103/4/4 1104/4/4
f 1104/4/4 1103/4/4 1105/4/4
f 1102/4/4 1104/4/4 1108/4/4
f 1105/4/4 1106/4/4 1109/4/4
f 1109/4/4 1106/4/4 1110/4/4
f 1111/4/4 1112/4/4 1113/4/4
f 1113/4/4 1112/4/4 1114/4/4
f 1107/4/4 1108/4/4 1115/4/4
f 1108/4/4 1104/4/4 1116/4/4
f 1115/4/4 1108/4/4 1116/4/4
f 1116/4/4 1104/4/4 1117/4/4
f 1117/4/4 1104/4/4 1118/4/4
f 1119/4/4 1120/4/4 1121/4/4
f 1121/4/4 1120/4/4 1122/4/4
f 1123/4/4 1124/4/4 1127/4/4
f 1125/4/4 1126/4/4 1131/4/4
f 1131/4/4 1126/4/4 1132/4/4
f 1129/4/4 1130/4/4 1133/4/4
f 1133/4/4 1130/4/4 1134/4/4
f 1127/4/4 1128/4/4 1135/4/4
f 1129/4/4 1133/4/4 1136/4/4
f 1136/4/4 1133/4/4 1137/4/4
f 1123/4/4 1127/4/4 1138/4/4
f 1127/4/4 1135/4/4 1138/4/4
f 1135/4/4 1136/4/4 1138/4/4
f 1138/4/4 1136/4/4 1139/4/4
f 1140/4/4 1141/4/4 1142/4/4
f 1142/4/4 1141/4/4 1143/4/4
f 1148/9/5 1145/9/5 1144/9/5
f 1149/9/5 1145/9/5 1148/9/5
f 1150/9/5 1147/9/5 1146/9/5
f 1151/9/5 1147/9/5 1150/9/5
f 1154/3/5 1153/3/5 1152/3/5
f 1155/3/5 1153/3/5 1154/3/5
f 1156/3/5 1153/3/5 1155/3/5
f 1157/3/5 1153/3/5 1156/3/5
f 1159/5/5 1156/5/5 1155/5/5
f 1160/5/5 1156/5/5 1159/5/5
f 1162/3/5 1159/3/5 1158/3/5
f 1162/3/5 1161/3/5 1160/3/5
f 1162/3/5 1160/3/5 1159/3/5
f 1163/3/5 1161/3/5 1162/3/5
f 1168/1/5 1165/1/5 1164/1/5
f 1169/1/5 1165/1/5 1168/1/5
f 1170/1/5 1167/1/5 1166/1/5
f 1171/1/5 1167/1/5 1170/1/5
f 1177/3/5 1173/3/5 1172/3/5
f 1178/3/5 1175/3/5 1174/3/5
f 1180/3/5 1177/3/5 1176/3/5
f 1181/3/5 1173/3/5 1177/3/5
f 1181/3/5 1177/3/5 1180/3/5
f 1182/3/5 1179/3/5 1178/3/5
f 1182/3/5 1178/3/5 1174/3/5
f 1183/3/5 1179/3/5 1182/3/5
f 1188/3/5 1185/3/5 1184/3/5
f 1191/3/5 1187/3/5 1186/3/5
f 1192/3/5 1189/3/5 1188/3/5
f 1192/3/5 1188/3/5 1184/3/5
f 1193/3/5 1191/3/5 1190/3/5
f 1193/3/5 1187/3/5 1191/3/5
f 1194/3/5 1189/3/5 1192/3/5
f 1195/3/5 1189/3/5 1194/3/5
f 1198/3/5 1193/3/5 1190/3/5
f 1199/3/5 1193/3/5 1198/3/5
f 1203/4/5 1201/4/5 1200/4/5
f 1203/8/5 1202/8/5 1201/8/5
f 1204/8/5 1202/8/5 1203/8/5
f 1205/4/5 1197/4/5 1196/4/5
f 1206/4/5 1197/4/5 1205/4/5
f 1207/4/5 1204/4/5 1203/4/5
f 1207/4/5 1203/4/5 1200/4/5
f 1208/4/5 1204/4/5 1207/4/5
f 1216/4/5 1210/4/5 1209/4/5
f 1216/4/5 1211/4/5 1210/4/5
f 1217/4/5 1211/4/5 1216/4/5
f 1218/4/5 1213/4/5 1212/4/5
f 1219/8/5 1214/8/5 1213/8/5
f 1219/4/5 1213/4/5 1218/4/5
f 1220/4/5 1215/4/5 1214/4/5
f 1220/8/5 1214/8/5 1219/8/5
f 1221/4/5 1215/4/5 1220/4/5
f 1222/4/5 1215/4/5 1221/4/5
f 1223/4/5 1211/4/5 1217/4/5
f 1224/4/5 1211/4/5 1223/4/5
f 1226/7/5 1220/7/5 1219/7/5
f 1227/4/5 1221/4/5 1220/4/5
f 1227/7/5 1220/7/5 1226/7/5
f 1228/4/5 1221/4/5 1227/4/5
f 1229/4/5 1225/4/5 1224/4/5
f 1230/4/5 1225/4/5 1229/4/5
f 1231/4/5 1229/4/5 1224/4/5
f 1232/4/5 1229/4/5 1231/4/5
f 1240/4/5 1234/4/5 1233/4/5
f 1241/4/5 1234/4/5 1240/4/5
f 1242/4/5 1236/4/5 1235/4/5
f 1243/4/5 1236/4/5 1242/4/5
f 1244/4/5 1238/4/5 1237/4/5
f 1245/4/5 1238/4/5 1244/4/5
f 1247/4/5 1240/4/5 1239/4/5
f 1248/4/5 1240/4/5 1247/4/5
f 1249/4/5 1246/4/5 1245/4/5
f 1250/4/5 1246/4/5 1249/4/5
f 1253/4/5 1252/4/5 1251/4/5
f 1254/4/5 1252/4/5 1253/4/5
f 1259/7/5 1256/7/5 1255/7/5
f 1260/7/5 1256/7/5 1259/7/5
f 1261/7/5 1258/7/5 1257/7/5
f 1262/7/5 1258/7/5 1261/7/5
f 1267/4/5 1264/4/5 1263/4/5
f 1268/4/5 1264/4/5 1267/4/5
f 1269/4/5 1266/4/5 1265/4/5
f 1270/4/5 1266/4/5 1269/4/5
f 1275/4/5 1274/4/5 1273/4/5
f 1276/4/5 1274/4/5 1275/4/5
f 1277/4/5 1272/4/5 1271/4/5
f 1278/4/5 1272/4/5 1277/4/5
f 1284/4/5 1280/4/5 1279/4/5
f 1285/4/5 1280/4/5 1284/4/5
f 1286/4/5 1282/4/5 1281/4/5
f 1287/4/5 1282/4/5 1286/4/5
f 1291/4/5 1284/4/5 1283/4/5
f 1292/4/5 1284/4/5 1291/4/5
f 1293/4/5 1288/4/5 1287/4/5
f 1294/4/5 1288/4/5 1293/4/5
f 1295/4/5 1290/4/5 1289/4/5
f 1296/4/5 1290/4/5 1295/4/5
f 1301/4/5 1298/4/5 1297/4/5
f 1302/4/5 1298/4/5 1301/4/5
f 1303/4/5 1300/4/5 1299/4/5
f 1304/4/5 1300/4/5 1303/4/5
f 1305/4/5 1298/4/5 1302/4/5
f 1306/4/5 1298/4/5 1305/4/5
f 1309/4/5 1308/4/5 1307/4/5
f 1310/4/5 1308/4/5 1309/4/5
f 1315/4/5 1312/4/5 1311/4/5
f 1316/4/5 1312/4/5 1315/4/5
f 1317/4/5 1314/4/5 1313/4/5
f 1318/4/5 1314/4/5 1317/4/5
f 1319/4/5 1312/4/5 1316/4/5
f 1320/4/5 1312/4/5 1319/4/5
f 1321/4/5 1317/4/5 1313/4/5
f 1322/4/5 1317/4/5 1321/4/5
f 1325/4/5 1324/4/5 1323/4/5
f 1327/4/5 1325/4/5 1323/4/5
f 1327/4/5 1326/4/5 1325/4/5
f 1328/4/5 1326/4/5 1327/4/5
f 1331/4/5 1326/4/5 1328/4/5
f 1334/4/5 1330/4/5 1329/4/5
f 1335/4/5 1332/4/5 1331/4/5
f 1335/4/5 1331/4/5 1328/4/5
f 1336/4/5 1332/4/5 1335/4/5
f 1338/4/5 1334/4/5 1333/4/5
f 1339/4/5 1330/4/5 1334/4/5
f 1339/4/5 1334/4/5 1338/4/5
f 1340/4/5 1337/4/5 1336/4/5
f 1341/4/5 1337/4/5 1340/4/5
f 1342/4/5 1338/4/5 1333/4/5
f 1343/4/5 1338/4/5 1342/4/5
f 1346/4/5 1345/4/5 1344/4/5
f 1347/4/5 1345/4/5 1346/4/5
f 1353/4/5 1349/4/5 1348/4/5
f 1354/4/5 1351/4/5 1350/4/5
f 1355/4/5 1351/4/5 1354/4/5
f 1358/4/5 1353/4/5 1352/4/5
f 1359/4/5 1349/4/5 1353/4/5
f 1359/4/5 1353/4/5 1358/4/5
f 1360/4/5 1357/4/5 1356/4/5
f 1361/4/5 1357/4/5 1360/4/5
f 1366/4/5 1363/4/5 1362/4/5
f 1367/4/5 1363/4/5 1366/4/5
f 1368/4/5 1365/4/5 1364/4/5
f 1369/4/5 1365/4/5 1368/4/5
f 1372/4/5 1371/4/5 1370/4/5
f 1373/4/5 1371/4/5 1372/4/5
f 1376/4/5 1375/4/5 1374/4/5
f 1377/4/5 1375/4/5 1376/4/5
f 1380/4/5 1379/4/5 1378/4/5
f 1381/4/5 1379/4/5 1380/4/5
f 1384/4/5 1383/4/5 1382/4/5
f 1385/4/5 1383/4/5 1384/4/5
f 1386/9/6 1387/9/6 1390/9/6
f 1390/9/6 1387/9/6 1391/9/6
f 1388/9/6 1389/9/6 1392/9/6
f 1392/9/6 1389/9/6 1393/9/6
f 1394/3/6 1395/3/6 1399/3/6
f 1399/3/6 1395/3/6 1400/3/6
f 1396/3/6 1397/3/6 1401/3/6
f 1401/3/6 1397/3/6 1402/3/6
f 1398/3/6 1399/3/6 1404/3/6
f 1404/3/6 1399/3/6 1405/3/6
f 1402/3/6 1403/3/6 1410/3/6
f 1410/3/6 1403/3/6 1411/3/6
f 1406/3/6 1407/3/6 1412/3/6
f 1412/3/6 1407/3/6 1413/3/6
f 1408/3/6 1409/3/6 1414/3/6
f 1414/3/6 1409/3/6 1415/3/6
f 1415/3/6 1409/3/6 1416/3/6
f 1417/4/6 1418/4/6 1419/4/6
f 1417/4/6 1419/4/6 1421/4/6
f 1419/4/6 1420/4/6 1421/4/6
f 1421/4/6 1420/4/6 1422/4/6
f 1423/3/6 1424/3/6 1427/3/6
f 1427/3/6 1424/3/6 1428/3/6
f 1425/3/6 1426/3/6 1429/3/6
f 1429/3/6 1426/3/6 1430/3/6
f 1430/3/6 1426/3/6 1431/3/6
f 1429/4/6 1430/4/6 1434/4/6
f 1434/4/6 1430/4/6 1435/4/6
f 1432/4/6 1433/4/6 1437/4/6
f 1435/4/6 1436/4/6 1441/4/6
f 1441/4/6 1436/4/6 1442/4/6
f 1432/4/6 1437/4/6 1443/4/6
f 1437/4/6 1438/4/6 1443/4/6
f 1443/4/6 1438/4/6 1444/4/6
f 1439/4/6 1440/4/6 1447/4/6
f 1447/4/6 1440/4/6 1448/4/6
f 1445/4/6 1446/4/6 1449/4/6
f 1449/4/6 1446/4/6 1450/4/6
f 1445/4/6 1449/4/6 1451/4/6
f 1451/4/6 1449/4/6 1452/4/6
f 1453/4/6 1454/4/6 1459/4/6
f 1459/4/6 1454/4/6 1460/4/6
f 1455/4/6 1456/4/6 1461/4/6
f 1461/4/6 1456/4/6 1462/4/6
f 1457/4/6 1458/4/6 1463/4/6
f 1463/4/6 1458/4/6 1464/4/6
f 1465/4/6 1466/4/6 1469/4/6
f 1466/4/6 1467/4/6 1469/4/6
f 1469/4/6 1467/4/6 1470/4/6
f 1468/7/6 1469/7/6 1471/7/6
f 1471/7/6 1469/7/6 1472/7/6
f 1473/7/6 1474/7/6 1475/7/6
f 1475/7/6 1474/7/6 1476/7/6
f 1477/7/6 1478/7/6 1479/7/6
f 1479/7/6 1478/7/6 1480/7/6
f 1481/4/6 1482/4/6 1483/4/6
f 1483/4/6 1482/4/6 1484/4/6
f 1484/4/6 1485/4/6 1486/4/6
f 1486/4/6 1485/4/6 1487/4/6
f 1488/4/6 1489/4/6 1490/4/6
f 1490/4/6 1489/4/6 1491/4/6
f 1492/4/6 1493/4/6 1496/4/6
f 1496/4/6 1493/4/6 1497/4/6
f 1494/4/6 1495/4/6 1498/4/6
f 1498/4/6 1495/4/6 1499/4/6
f 1500/4/6 1501/4/6 1502/4/6
f 1502/4/6 1501/4/6 1503/4/6
f 1503/4/6 1504/4/6 1505/4/6
f 1505/4/6 1504/4/6 1506/4/6
f 1507/4/6 1508/4/6 1509/4/6
f 1507/4/6 1509/4/6 1512/4/6
f 1510/4/6 1511/4/6 1512/4/6
f 1509/4/6 1510/4/6 1512/4/6
f 1512/4/6 1511/4/6 1513/4/6
f 1513/4/6 1511/4/6 1514/4/6
f 1515/4/6 1516/4/6 1519/4/6
f 1519/4/6 1516/4/6 1520/4/6
f 1517/4/6 1518/4/6 1521/4/6
f 1521/4/6 1518/4/6 1522/4/6
f 1523/4/6 1524/4/6 1528/4/6
f 1525/4/6 1526/4/6 1530/4/6
f 1530/4/6 1526/4/6 1531/4/6
f 1531/4/6 1526/4/6 1532/4/6
f 1527/4/6 1528/4/6 1533/4/6
f 1533/4/6 1528/4/6 1534/4/6
f 1528/4/6 1524/4/6 1535/4/6
f 1534/4/6 1528/4/6 1535/4/6
f 1529/4/6 1530/4/6 1536/4/6
f 1530/4/6 1531/4/6 1536/4/6
f 1536/4/6 1531/4/6 1537/4/6
f 1535/4/6 1524/4/6 1538/4/6
f 1538/4/6 1524/4/6 1539/4/6
f 1539/4/6 1540/4/6 1541/4/6
f 1541/4/6 1540/4/6 1542/4/6
f 1543/4/6 1544/4/6 1545/4/6
f 1545/4/6 1544/4/6 1546/4/6
f 1546/4/6 1547/4/6 1550/4/6
f 1550/4/6 1547/4/6 1551/4/6
f 1548/4/6 1549/4/6 1552/4/6
f 1552/4/6 1549/4/6 1553/4/6
f 1553/4/6 1554/4/6 1555/4/6
f 1552/4/6 1553/4/6 1555/4/6
f 1555/4/6 1554/4/6 1556/4/6
f 1556/4/6 1554/4/6 1559/4/6
f 1557/4/6 1558/4/6 1560/4/6
f 1560/4/6 1558/4/6 1561/4/6
f 1556/4/6 1559/4/6 1564/4/6
f 1559/4/6 1560/4/6 1564/4/6
f 1564/4/6 1560/4/6 1565/4/6
f 1562/4/6 1563/4/6 1566/4/6
f 1566/4/6 1563/4/6 1567/4/6
f 1556/4/6 1564/4/6 1569/4/6
f 1568/4/6 1569/4/6 1571/4/6
f 1569/4/6 1564/4/6 1572/4/6
f 1571/4/6 1569/4/6 1572/4/6
f 1572/4/6 1564/4/6 1573/4/6
f 1571/4/6 1572/4/6 1578/4/6
f 1570/4/6 1571/4/6 1578/4/6
f 1578/4/6 1572/4/6 1579/4/6
f 1574/4/6 1575/4/6 1581/4/6
f 1576/4/6 1577/4/6 1582/4/6
f 1582/4/6 1577/4/6 1583/4/6
f 1579/4/6 1572/4/6 1584/4/6
f 1584/4/6 1572/4/6 1585/4/6
f 1580/4/6 1581/4/6 1586/4/6
f 1581/4/6 1575/4/6 1587/4/6
f 1586/4/6 1581/4/6 1587/4/6
f 1588/4/6 1589/4/6 1592/4/6
f 1592/4/6 1589/4/6 1593/4/6
f 1590/4/6 1591/4/6 1596/4/6
f 1596/4/6 1591/4/6 1597/4/6
f 1594/4/6 1595/4/6 1602/4/6
f 1602/4/6 1595/4/6 1603/4/6
f 1598/4/6 1599/4/6 1605/4/6
f 1605/4/6 1599/4/6 1606/4/6
f 1600/4/6 1601/4/6 1608/4/6
f 1608/4/6 1601/4/6 1609/4/6
f 1603/4/6 1604/4/6 1610/4/6
f 1610/4/6 1604/4/6 1611/4/6
f 1606/4/6 1607/4/6 1615/4/6
f 1612/4/6 1613/4/6 1618/4/6
f 1618/4/6 1613/4/6 1619/4/6
f 1614/4/6 1615/4/6 1620/4/6
f 1615/4/6 1607/4/6 1621/4/6
f 1620/4/6 1615/4/6 1621/4/6
f 1616/4/6 1617/4/6 1623/4/6
f 1623/4/6 1617/4/6 1624/4/6
f 1622/4/6 1623/4/6 1625/4/6
f 1625/4/6 1623/4/6 1626/4/6
f 1627/4/6 1628/4/6 1629/4/6
f 1629/4/6 1628/4/6 1630/4/6
f 1631/4/6 1632/4/6 1634/4/6
f 1634/4/6 1632/4/6 1635/4/6
f 1633/4/6 1634/4/6 1636/4/6
f 1636/4/6 1634/4/6 1637/4/6
f 1638/4/6 1639/4/6 1640/4/6
f 1640/4/6 1639/4/6 1641/4/6
f 1638/4/6 1640/4/6 1642/4/6
f 1642/4/6 1640/4/6 1643/4/6
f 1644/4/6 1645/4/6 1648/4/6
f 1648/4/6 1645/4/6 1649/4/6
f 1646/4/6 1647/4/6 1650/4/6
f 1650/4/6 1647/4/6 1651/4/6
f 1652/4/6 1653/4/6 1656/4/6
f 1656/4/6 1653/4/6 1657/4/6
f 1654/4/6 1655/4/6 1658/4/6
f 1658/4/6 1655/4/6 1659/4/6
f 1659/4/6 1655/4/6 1660/4/6
f 1660/4/6 1655/4/6 1661/4/6
f 1662/4/6 1663/4/6 1664/4/6
f 1664/4/6 1663/4/6 1665/4/6
f 1666/4/6 1667/4/6 1668/4/6
f 1668/4/6 1667/4/6 1669/4/6
f 1670/4/6 1671/4/6 1672/4/6
f 1672/4/6 1671/4/6 1673/4/6
f 1674/4/6 1675/4/6 1676/4/6
f 1676/4/6 1675/4/6 1677/4/6
f 1678/4/6 1679/4/6 1680/4/6
f 1680/4/6 1679/4/6 1681/4/6
f 1681/4/6 1682/4/6 1683/4/6
f 1683/4/6 1682/4/6 1684/4/6
f 1685/4/6 1686/4/6 1687/4/6
f 1687/4/6 1686/4/6 1688/4/6
